<svg width="102" height="80" version="1.1" viewBox="0 0 26.987 21.167" xmlns="http://www.w3.org/2000/svg" xmlns:xlink="http://www.w3.org/1999/xlink">
 <defs>
  <linearGradient id="linearGradient908" x1="-181.76" x2="-73.369" y1="241.85" y2="51.356" gradientUnits="userSpaceOnUse">
   <stop stop-color="#051ba5" offset="0"/>
   <stop stop-color="#01a1ff" offset=".5"/>
   <stop stop-color="#070799" offset="1"/>
  </linearGradient>
  <linearGradient id="linearGradient1005" x1="-10.906" x2="55.663" y1="227.37" y2="104.96" gradientTransform="translate(77.264 -26.458)" gradientUnits="userSpaceOnUse">
   <stop stop-color="#1ea306" offset="0"/>
   <stop stop-color="#fefa03" offset=".55203"/>
   <stop stop-color="#63c205" offset="1"/>
  </linearGradient>
 </defs>
 <g transform="matrix(.098782 0 0 .098782 3.8776 -1.1547)" stroke-width=".26458">
  <path d="m87.567 215.71c-13.613-0.67611-30.474-5.7925-41.614-12.628-2.2955-1.4084-7.6411-4.9903-9.0535-6.0664-0.81404-0.62023-1.7485-1.1092-2.1208-1.1099-1.0839-2e-3 -12.32-11.951-13.159-13.994-0.21349-0.51999-1.8716-2.9714-2.4363-3.602-0.70522-0.78746-5.2071-8.1428-5.4377-8.8843-0.10958-0.35239-0.42175-0.95675-0.6937-1.343-0.27195-0.38626-0.49307-0.80298-0.49139-0.92604 2e-3 -0.12306-0.52312-1.4144-1.1662-2.8696-1.6033-3.6279-2.3204-5.4136-2.5502-6.35-0.10711-0.43656-0.57656-2.0952-1.0432-3.6858-0.46666-1.5906-0.88456-3.0794-0.92865-3.3083-0.0441-0.22895-0.20417-0.89205-0.35574-1.4736-0.74261-2.8491-1.6198-10.432-1.6296-14.088-7e-3 -2.478 3.1425 0.95722 4.0627 4.4318 1.1696 4.416 2.5083 8.4197 3.0432 9.1012 0.12587 0.16034 0.55784 1.125 0.95994 2.1436 0.4021 1.0186 0.9539 2.136 1.2262 2.4831 0.27234 0.34705 0.49515 0.86279 0.49515 1.1461 0 0.28331 0.4037 1.0114 0.8971 1.618 0.49341 0.60657 1.4951 2.1194 2.226 3.3618 2.0934 3.5584 14.814 16.695 17.444 18.014 0.40222 0.20178 1.9243 1.1402 3.3824 2.0854 3.2208 2.0878 3.9958 2.5469 5.0218 2.9749 0.43656 0.18211 2.1911 1.0117 3.899 1.8436 6.8605 3.3415 21.974 6.8219 29.624 6.8219 18.738 0 32.618-4.2707 48.32-14.867 6.1657-4.161 18.897-21.301 21.187-28.524 0.16147-0.50932 0.78-2.3548 1.3745-4.101 2.0543-6.0341 3.059-17.405 2.0924-23.68-0.16812-1.0914-0.34134-2.5202-0.38495-3.175-0.32982-4.9525-4.3964-16.577-7.3124-20.902-0.24525-0.3638-0.77572-1.2568-1.1788-1.9844-0.40309-0.72761-1.0716-1.737-1.4857-2.2431s-0.75278-1.0111-0.75278-1.1222c0-0.6412-4.4626-5.8968-7.8052-9.1922-4.9534-4.8834-7.305-6.7543-13.287-10.571-1.6823-1.0733-8.873-4.7095-10.541-5.3305-0.86458-0.32184-2.2863-0.84942-3.1595-1.1724-0.87312-0.32298-1.7661-0.65388-1.9844-0.73535-1.2012-0.44828-6.0121-1.9113-6.35-1.931-0.8419-0.0492-2.7971-0.45016-3.1845-0.65307-1.8435-0.96559-17.711-1.6822-23.599-1.0657-1.6032 0.16787-2.9797 0.24038-3.059 0.16115-0.99768-0.99768 16.385-3.662 23.889-3.6615 20.792 1e-3 42.225 7.5669 58.609 20.689 2.7281 2.1849 11.903 11.215 11.903 11.715 0 0.14059 0.46276 0.81276 1.0284 1.4937 3.2903 3.9614 11.142 17.344 11.142 18.991 0 0.0874 0.17429 0.53412 0.38731 0.99268 1.5327 3.2993 4.1785 13.423 4.8161 18.429 0.96161 7.5486 0.65196 13.677-1.25 24.739-1.7306 10.065-4.1921 15.575-12.725 28.487-2.1963 3.3233-12.761 14.244-13.78 14.244-0.11951 0-1.1368 0.69379-2.2607 1.5418-3.238 2.4431-7.5902 5.2912-8.7903 5.7523-0.21828 0.0839-0.57547 0.25817-0.79375 0.38732-1.9232 1.1379-2.7482 1.5791-2.9531 1.5791-0.13231 0-0.53998 0.19619-0.90594 0.43597-8.9996 5.8967-30.865 10.372-46.809 9.5797z" fill="url(#linearGradient1005)"/>
  <g transform="translate(198.06 -26.458)">
   <g transform="translate(-.013466 -.091331)">
    <path d="m-194.42 158.64c-1.7807-3.0089-2.58-6.4359-2.2801-9.7757 0.263-2.9284 0.5792-4.1059 1.7224-6.4139 1.9969-4.0316 4.7793-6.7957 8.663-8.6059 1.0455-0.48731 2.0266-0.88602 2.1803-0.88602 0.19131 0 0.30103-4.0243 0.34807-12.766l0.0687-12.766 10.319 0.0114c10.896 0.012 13.037 0.19432 16.573 1.4108 4.594 1.5806 7.9028 4.5006 10.081 8.8966 1.7376 3.5067 2.1815 9.0483 1.0279 12.832-1.1789 3.8669-3.6817 7.2839-6.8798 9.3927-0.88273 0.58208-1.6082 1.1314-1.6123 1.2208-4e-3 0.0894 0.55825 0.37304 1.2495 0.63038 0.69122 0.25734 2.3283 1.0085 3.638 1.6693 1.9451 0.98139 2.8175 1.6413 4.763 3.603 3.9105 3.943 5.5316 7.9622 5.5042 13.646-0.0174 3.6066-0.66899 6.5566-2.0443 9.2552l-0.90622 1.7782 3.1962 0.17185c1.7579 0.0945 4.3086 0.17187 5.6682 0.17187h2.472v-52.917h6.35v11.642c0 7.5839 0.0922 11.642 0.26456 11.642 0.1455 0 4.1639-3.6681 8.9297-8.1514 4.7658-4.4833 10.332-9.7191 12.369-11.635l3.7042-3.4837 4.1672-7e-3c2.292-4e-3 4.1672 0.0374 4.1672 0.0911s-2.3448 2.2861-5.2106 4.9609c-2.8658 2.6748-5.4628 5.1015-5.7711 5.3925-1.6744 1.5809-4.2143 3.9511-6.084 5.6777-1.1642 1.075-3.0692 2.8587-4.2333 3.9637-1.1642 1.105-3.5752 3.3599-5.3578 5.011-1.7826 1.6511-3.241 3.0778-3.2408 3.1706 5.3e-4 0.23665 1.043 1.4298 3.2685 3.7405 1.0512 1.0914 4.764 5.0204 8.2508 8.7311 3.4868 3.7107 6.6373 7.0566 7.0011 7.4353 0.36381 0.37876 1.2392 1.3096 1.9454 2.0685l1.284 1.3798 4.0077-0.80814c2.2042-0.44448 5.3769-1.1966 7.0504-1.6714l3.0427-0.86326 0.0679-18.464 0.0679-18.464 5.1558 0.1514 0.0568 9.3613c0.0312 5.1487 0.0908 9.3936 0.13229 9.433 0.068 0.0646 5.9645-5.4007 15.421-14.293 5.4239-5.1003 4.5979-4.6332 8.192-4.6332-1.4807-1.5767-1.0552 4.4529-2.6357 5.9295-2.0373 1.9043-4.4185 4.1236-5.2917 4.9317-8.7708 8.1177-12.831 11.996-12.825 12.251 4e-3 0.16713 1.5221 1.8836 3.3734 3.8144l3.3661 3.5105 2.6651-1.7949c4.2343-2.8518 8.0577-6.2538 11.253-10.012 1.0498-1.235 3.7703-5.3384 4.7204-7.1199 0.73176-1.3721 0.82234-1.4619 0.66763-0.66145-0.83288 4.3091-4.4811 11.317-8.3334 16.007-1.5194 1.85-5.275 5.5981-6.6984 6.685l-0.75311 0.57506 0.5426 0.68981c0.29844 0.3794 2.0721 2.3178 3.9415 4.3075 8.681 9.2399 11.442 12.219 11.442 12.345 0 0.075-1.4658 0.13636-3.2574 0.13636-2.7997 0-3.3295-0.0683-3.7703-0.48646-0.2821-0.26755-1.9403-2.0237-3.6849-3.9026-1.7446-1.8789-4.0733-4.3686-5.1749-5.5328-1.1016-1.1642-2.5009-2.6524-3.1095-3.3073l-1.1066-1.1906-1.1268 0.65663c-0.61974 0.36115-2.6588 1.4329-4.5312 2.3816l-3.4044 1.725-0.0352 4.7621-0.0352 4.7621-5.1594 0.1514v-3.8769c0-3.5679-0.0369-3.866-0.46302-3.7403-2.617 0.77225-7.3748 2.0418-7.6519 2.0418-0.19348 0-0.35178 0.0718-0.35178 0.15964 0 0.0878 1.0872 1.3082 2.416 2.712l2.416 2.5523-8.2488 0.1456-3.9063-4.0743-4.8504 0.46035c-2.6677 0.25319-8.0447 0.53077-11.949 0.61684l-7.0986 0.1565v2.8273h-6.35v-1.5875c0-1.1952-0.0929-1.5875-0.37582-1.5875-31.156-2.1745-55.613-6.7424-63.376-20.355zm85.05 19.82c20.738-1.3766 36.448-7.3187 47.027-17.788 3.8749-3.8348 6.2979-7.1182 8.5246-11.552 1.2303-2.4497 2.5267-5.6039 1.9245-4.6825-3.3417 5.1133-4.8943 6.9476-9.0959 10.746-4.4838 4.0536-11.344 8.1007-18.347 10.824-7.6236 2.9648-15.966 4.9157-26.329 6.1572-4.0233 0.48199-32.049 0.48664-37.439 6e-3 -16.808-1.4984-28.389-4.284-36.373-8.7491-5.7709-3.2274-9.3593-7.1462-10.762-11.753-0.70074-2.3012-0.59405-5.058 0.2643-6.8298 0.81426-1.6808 2.8163-4.1017 4.4519-5.3835l1.3694-1.0731 0.0197-2.4652c0.0229-2.8696 0.18871-2.8067-3.023-1.1479-2.3505 1.2139-5.489 4.2848-6.8301 6.6828-1.8186 3.2519-2.1217 4.4479-2.1394 8.4397-0.018 4.0912 0.38836 5.6726 2.2438 8.7312 6.1024 10.06 24.107 16.635 52.499 19.173 10.055 0.89881 24.089 1.1897 32.015 0.66358zm-0.18536-6.509c1.6443-0.0838 2.954-0.24927 2.9104-0.3677-0.0436-0.11844-1.0913-1.2707-2.3282-2.5606-3.488-3.6374-10.765-11.349-12.965-13.74-1.0914-1.1861-2.0737-2.1698-2.1828-2.186-0.25532-0.0378-0.26157 18.869-6e-3 19.125 0.18828 0.18829 8.6591 0.0313 14.571-0.26998zm-40.725-2.3735c1.4069-1.5983 2.2413-3.0533 2.9497-5.1435 0.76272-2.2504 0.64224-6.2217-0.25637-8.451-0.83136-2.0625-2.7284-4.6038-4.3303-5.8009-4.3621-3.2598-9.0378-4.2588-19.933-4.2588h-4.5918v18.55l1.5214 0.67465c4.1138 1.8243 10.903 3.6756 17.793 4.8519 5.875 1.003 5.5759 1.0214 6.8468-0.42233zm73.486-5.0672c1.212-0.5457 2.2066-1.0578 2.2103-1.1381 0.01-0.21517-4.5039-5.0134-4.7164-5.0134-0.13263 0-0.18749 6.6331-0.0585 7.0776 0.0482 0.16603 0.50773 9e-5 2.5646-0.92604zm-107.06-15.164v-10.6l-1.2279 0.87634c-1.4298 1.0205-3.4356 3.4054-4.484 5.3317-1.3114 2.4095-0.87314 6.2648 1.1166 9.8219 0.60677 1.0847 4.1599 5.1696 4.4966 5.1696 0.0543 0 0.0987-4.7699 0.0987-10.6zm20.241-11.482c4.025-0.83501 6.9061-2.7025 8.8792-5.7553 1.3865-2.1452 1.9318-4.3644 1.7848-7.2642-0.24968-4.926-2.975-7.9969-8.415-9.4822-1.3615-0.37175-3.1115-0.49488-8.4005-0.59107l-6.6807-0.12151v23.941l5.3578-0.14383c3.4261-0.092 6.121-0.30216 7.4745-0.58297z" fill="#56ad06"/>
    <path d="m-39.49 179.32c-0.06645-0.10752 0.21316-1.5628 0.62135-3.234 0.40819-1.6712 0.66145-3.1868 0.5628-3.368-0.09865-0.18124-1.187-1.182-2.4185-2.2239-1.2315-1.0419-2.2391-2.0247-2.2391-2.184 0-0.18021 1.2464-0.38966 3.2981-0.55426l3.2981-0.26459 1.1228-2.6458c0.61754-1.4552 1.1277-2.7819 1.1337-2.9482 0.02312-0.64127 0.82029-0.61696 1.0672 0.0326 0.94037 2.4734 2.2146 5.3243 2.443 5.4658 0.1499 0.0929 1.6268 0.25345 3.2819 0.35686 1.6552 0.10342 3.0858 0.31165 3.1792 0.46273 0.17773 0.28756-0.60566 1.0467-3.1474 3.05-1.054 0.83071-1.5214 1.3838-1.5214 1.8003 0 0.33068 0.30627 1.8722 0.68061 3.4255 0.37433 1.5533 0.62593 2.8789 0.5591 2.9458-0.06683 0.0668-1.3838-0.65878-2.9267-1.6124-1.5429-0.95367-2.9119-1.734-3.0423-1.734-0.13039 0-1.4959 0.77069-3.0344 1.7126-1.5385 0.94195-2.8517 1.6247-2.9181 1.5172zm23.56 0.0357c-0.0633-0.0633 0.22517-1.449 0.64106-3.0794 0.41589-1.6304 0.75876-3.1025 0.76195-3.2715 0.0052-0.27499-2.2792-2.3774-4.3551-4.0082-1.0838-0.85141-0.67667-1.0176 3.0392-1.2409l3.0999-0.18625 1.2937-3.1433c0.71153-1.7288 1.3647-3.1454 1.4515-3.148 0.086797-3e-3 0.75212 1.3936 1.4785 3.1025l1.3207 3.1072 3.3618 0.29994c1.849 0.16497 3.4127 0.35082 3.4748 0.413 0.062182 0.0622-0.80611 0.88047-1.9295 1.8184-1.1234 0.93794-2.296 1.9532-2.6057 2.2561l-0.56307 0.55073 0.77081 3.1246c0.42394 1.7185 0.73584 3.2295 0.69311 3.3577-0.042736 0.1282-1.327-0.53999-2.8539-1.4849-1.5269-0.94488-2.9142-1.7214-3.0829-1.7256-0.1687-4e-3 -1.5611 0.75301-3.0942 1.6827-1.5331 0.92966-2.8393 1.6385-2.9026 1.5752zm23.634-0.21637c0-0.20328 0.2975-1.5976 0.66112-3.0984 0.36361-1.5009 0.66127-2.8732 0.66146-3.0497 1.88e-4 -0.1765-1.1311-1.2887-2.5139-2.4715-1.3828-1.1828-2.4563-2.2444-2.3855-2.359 0.07085-0.11464 1.6113-0.29394 3.4233-0.39844l3.2945-0.19002 1.2791-3.0426c0.70348-1.6735 1.3775-3.0609 1.4977-3.0832 0.12028-0.0223 0.79034 1.3287 1.489 3.0022l1.2704 3.0427 3.3156 0.26785c1.8236 0.14731 3.3866 0.33893 3.4735 0.42581 0.08689 0.0869-0.97621 1.0912-2.3624 2.2318-1.4062 1.157-2.5204 2.2753-2.5204 2.5296 0 0.25068 0.30525 1.7224 0.67834 3.2706 0.37308 1.5482 0.64098 2.9141 0.59532 3.0355-0.04567 0.1214-1.3332-0.53666-2.8612-1.4624-1.528-0.92569-2.8972-1.6867-3.0427-1.691-0.14552-4e-3 -1.5445 0.76107-3.1089 1.701-1.7957 1.0789-2.8443 1.5727-2.8443 1.3394zm-135.73-65.864c0-0.0599 0.29764-1.3686 0.66146-2.9082 0.36379-1.5397 0.65375-3.0683 0.64431-3.3969-0.0121-0.42342-0.76368-1.2141-2.5797-2.7142l-2.5626-2.1167 1.8521-0.18112c1.0186-0.0996 2.6558-0.25793 3.638-0.35179 1.0813-0.10333 1.7896-0.29285 1.7953-0.48033 0.0147-0.48607 2.3141-5.5823 2.554-5.6604 0.11812-0.03846 0.7882 1.2842 1.489 2.9394l1.2743 3.0093 1.2393 0.15219c0.6816 0.0837 2.2215 0.23244 3.4221 0.33051 1.2006 0.0981 2.1828 0.26123 2.1828 0.36255s-0.74414 0.79439-1.6536 1.5402c-0.90951 0.74577-2.0548 1.705-2.545 2.1316l-0.89135 0.77562 0.79418 3.2724c0.4368 1.7998 0.70842 3.3057 0.6036 3.3463-0.10481 0.0406-1.4585-0.70239-3.0081-1.6511l-2.8175-1.725-0.99577 0.55747c-0.54767 0.30661-1.857 1.0794-2.9095 1.7173-1.8491 1.1206-2.1873 1.2832-2.1873 1.051zm23.558-0.0896c6e-3 -0.10915 0.348-1.5672 0.7605-3.24 0.41249-1.6729 0.69603-3.1612 0.63012-3.3073-0.0659-0.14613-1.2714-1.2182-2.6787-2.3824l-2.5589-2.1167 2.1167-0.20053c5.0868-0.48193 4.8626-0.42568 5.3402-1.3403 0.24136-0.46225 0.82974-1.7911 1.3075-2.9531 0.47777-1.1619 0.97476-2.148 1.1044-2.1912 0.12966-0.04322 0.80135 1.2873 1.4926 2.9566l1.2569 3.0352 1.3638 0.14268c0.75008 0.0785 2.3672 0.23444 3.5937 0.34661l2.2299 0.20393-2.3484 1.9844c-1.2916 1.0914-2.5101 2.1067-2.7077 2.2562-0.29794 0.22541-0.22402 0.83468 0.43268 3.5664 0.4356 1.812 0.74947 3.337 0.69748 3.389-0.05199 0.052-1.425-0.69047-3.0512-1.6499l-2.9567-1.7444-2.8573 1.7216c-2.8841 1.7377-3.1865 1.8831-3.1674 1.5231z" fill="#f30b08"/>
    <path d="m-183.91 167.93c-0.17848-0.17848 0.32753 0.0215 1.1245 0.44435 0.79694 0.42287 2.5492 1.2273 3.894 1.7877 1.3448 0.56035 2.432 1.1403 2.416 1.2887-0.0159 0.1484-0.0149 0.95444 2e-3 1.7912l0.0314 1.5214 5.887-0.0264c3.3626-0.0151 5.6033-0.11721 5.2255-0.23821-0.36381-0.11651-0.50776-0.22371-0.31991-0.23821s1.0813 0.21262 1.9855 0.50473 2.1197 0.58421 2.7012 0.6491c2.0085 0.22417 3.4399 0.47989 3.8451 0.68695 0.22367 0.1143 1.2879 0.28358 2.365 0.3762 1.0771 0.0926 2.0542 0.22762 2.1714 0.30004 0.11716 0.0724 0.9579 0.18267 1.8683 0.24501 0.9104 0.0624 1.9949 0.20847 2.41 0.32472 0.73122 0.20478 0.68589 0.25041-1.4552 1.4649-1.2155 0.68943-2.9838 1.496-3.9297 1.7923-4.236 1.3271-4.5326 1.3527-17.257 1.4897-15.12 0.15677-12.533-4.3-12.965-14.164zm53.241 12.396c0-1.802 0.014-1.8404 0.59532-1.6278 0.32742 0.11977 1.756 0.20612 3.1745 0.19189l2.5792-0.0259 5.3e-4 1.6536 5.3e-4 1.6536h-6.35v-1.8455zm32.919 0.44705c-2.2463-2.4138-2.5864-2.8288-2.4388-2.9763 0.079-0.079 0.84342-0.20793 1.6988-0.28659 0.85537-0.0787 2.4287-0.36219 3.4964-0.63007 1.0676-0.26788 1.8752-0.4211 1.7946-0.34048-0.19955 0.19954 0.59253 1.1779 2.7669 3.4175 1.0074 1.0376 1.8316 1.9604 1.8316 2.0505 0 0.0901-1.7658 0.16391-3.924 0.16391h-3.924zm13.118-2.6378v-4.0363l0.99219-0.33457c0.5457-0.18401 1.1773-0.38042 1.4035-0.43647 0.22624-0.056 0.86585-0.29181 1.4214-0.52392 0.55552-0.23211 1.055-0.42202 1.11-0.42202 0.05499 0 0.09998 2.2026 0.09998 4.8948v4.8948h-5.0271zm26.844 2.9118c-1.6673-1.8342-11.31-12.171-12.027-12.894l-0.66146-0.66597 4.0681-2.7408 1.1172 1.2381c1.2567 1.3927 2.4652 2.691 7.8023 8.3818 2.0471 2.1828 4.4272 4.7215 5.2891 5.6415s1.6068 1.7832 1.6553 1.9182c0.05107 0.14217-1.2396 0.24552-3.0664 0.24552h-3.1545zm-65.804-2.2258c0.1819-0.0734 0.47955-0.0734 0.66146 0 0.1819 0.0734 0.0331 0.13345-0.33073 0.13345-0.36381 0-0.51263-0.06-0.33073-0.13345zm1.5875-0.0115c0.32742-0.0631 0.8632-0.0631 1.1906 0s0.0595 0.11466-0.59531 0.11466c-0.65484 0-0.92273-0.0516-0.59531-0.11466zm4.101 4e-3c0.25466-0.0666 0.67138-0.0666 0.92604 0s0.0463 0.121-0.46302 0.121-0.71768-0.0544-0.46302-0.121zm2.249-4e-3c0.32742-0.0631 0.8632-0.0631 1.1906 0s0.0595 0.11466-0.59531 0.11466c-0.65484 0-0.92273-0.0516-0.59531-0.11466zm-16.267-0.26121c0.25743-0.0671 0.61462-0.0627 0.79375 0.01 0.17913 0.0725-0.0315 0.12736-0.46806 0.12197-0.43656-5e-3 -0.58312-0.0647-0.32569-0.13178zm-36.104-4.7599c0.191-0.0764 0.4192-0.067 0.50712 0.0209 0.0879 0.0879-0.0684 0.15045-0.34726 0.13897-0.30823-0.0127-0.37092-0.0754-0.15986-0.15985zm37.358-27.931-2e-3 -26.657h6.35v11.774c0 6.4757 0.0893 11.771 0.19844 11.768 0.20176-6e-3 0.63545-0.40117 6.9453-6.3301 1.9645-1.8459 6.4889-6.0813 10.054-9.4119 3.5653-3.3306 6.875-6.4482 7.3549-6.9279l0.87263-0.87218h8.1331l-2.2943 2.1828c-1.2619 1.2006-3.9012 3.6778-5.8652 5.5051-9.4557 8.7973-16.189 15.088-17.991 16.808-1.0914 1.0421-2.4354 2.2833-2.9866 2.7582-0.5512 0.47497-0.96792 0.95297-0.92605 1.0622 0.094 0.24524 2.2512 2.6084 4.9453 5.4175 1.1165 1.1642 4.7624 5.0337 8.1019 8.599 3.3396 3.5653 6.6954 7.1371 7.4576 7.9375l1.3856 1.4552-1.2499 0.21944c-0.68742 0.1207-1.6884 0.23423-2.2244 0.25231-0.53598 0.0181-0.93495 0.0979-0.88662 0.17743 0.0483 0.0795-0.62765 0.14457-1.5022 0.14457-1.4946 0-1.64-0.0571-2.4207-0.95063-0.75625-0.86556-11.304-12.071-15.108-16.049-0.86955-0.90951-1.6741-1.6536-1.7879-1.6536-0.11381 0-0.20694 4.3955-0.20694 9.7678v9.7677l-6.3453-0.0886zm-42.65 26.344c0.19099-0.0764 0.4192-0.067 0.50712 0.0209 0.0879 0.0879-0.0684 0.15045-0.34727 0.13897-0.30823-0.0127-0.37092-0.0754-0.15985-0.15985zm61.24-3e-3c0.25743-0.0671 0.61462-0.0627 0.79375 0.01 0.17913 0.0725-0.0315 0.12736-0.46806 0.12197-0.43656-5e-3 -0.58312-0.0647-0.32569-0.13178zm-32.095-0.43404c-0.0676-0.0624-1.3135-0.1832-2.7687-0.26847-1.4552-0.0853-3.0302-0.23286-3.5001-0.32798l-0.85426-0.17293 1.0428-1.1847c3.9995-4.5437 4.6776-11.018 1.6882-16.119-0.8565-1.4615-3.8649-4.2731-5.534-5.1718-3.4369-1.8507-8.308-2.596-16.966-2.596h-5.378l-0.0417 9.062c-0.0229 4.9841-0.0352 9.2166-0.0272 9.4057s-0.0626 0.3081-0.15676 0.26458c-2.7926-1.2905-8.0332-4.7093-7.2188-4.7093 0.28721 0 0.32576-2.1728 0.21475-12.105-0.0744-6.6576-0.18015-12.722-0.23497-13.476-0.0548-0.75412-7.9e-4 -1.31 0.12004-1.2353 0.12084 0.0747 0.21113-5.5591 0.20064-12.52-0.0105-6.9604-0.0147-12.804-9e-3 -12.986 0.0119-0.40625 13.563-0.45616 18.848-0.0694 9.2081 0.67381 14.623 3.7127 17.686 9.9252 1.5793 3.2031 1.9285 4.9427 1.779 8.8636-0.10907 2.8608-0.23194 3.5771-0.91027 5.3064-1.4936 3.8077-4.4373 7.3035-7.4292 8.8226-0.47294 0.24014-0.85989 0.54407-0.85989 0.6754s0.65517 0.48391 1.4559 0.78351c6.348 2.3751 10.407 6.0478 12.577 11.381 1.094 2.6884 1.4053 4.8461 1.2393 8.5918-0.15232 3.4378-0.77275 5.7806-2.2491 8.4926-0.63133 1.1598-0.83553 1.3326-1.6556 1.4017-0.51453 0.0433-0.99078 0.0277-1.0583-0.0347zm-18.939-33.898c5.5409-1.2662 9.3901-5.1534 10.215-10.315 0.78377-4.9062-1.265-9.2003-5.3432-11.199-2.6564-1.3019-5.2157-1.6494-12.146-1.6494h-6.0562v23.882l5.7547-0.15083c3.7748-0.0989 6.3813-0.29403 7.5759-0.56704zm84.565 33.882c0-0.0572 0.18478-0.17489 0.41062-0.26156 0.23546-0.0903 0.34166-0.046 0.24897 0.10399-0.15538 0.25141-0.65958 0.37185-0.65958 0.15757zm-78.118-1.3942c0.1819-0.0734 0.47956-0.0734 0.66146 0s0.0331 0.13346-0.33073 0.13346c-0.3638 0-0.51263-0.0601-0.33073-0.13346zm81.752-0.38677c0.17948-0.18082 0.39297-0.26211 0.47443-0.18065 0.08146 0.0815-0.06538 0.22941-0.32632 0.32877-0.37708 0.14358-0.40747 0.11319-0.14811-0.14812zm-87.556-0.67707c0.191-0.0764 0.4192-0.067 0.50712 0.0209 0.0879 0.0879-0.0684 0.15045-0.34726 0.13896-0.30823-0.0127-0.37092-0.0754-0.15986-0.15985zm77.837-20.216v-18.497h5.0271v9.525c0 6.4497 0.08931 9.525 0.27661 9.525 0.15214 0 0.55186-0.26789 0.88826-0.59531 0.33641-0.32742 2.1467-2.0238 4.0229-3.7697 4.8035-4.47 7.0369-6.5607 9.626-9.0107 1.2385-1.172 3.0948-2.9282 4.1251-3.9026l1.8733-1.7717h3.1087c0.5877 0.54683 2.1959 1.2395 1.6114 1.7897-1.0289 0.9753-5.4756 5.1289-9.3165 8.7025-0.1807 0.16813-3.2483 3.0106-6.817 6.3166-3.5686 3.306-6.4884 6.0892-6.4884 6.1848 0 0.31032 6.6135 7.2933 7.0841 7.4799 0.42148 0.16713 0.42214 0.18244 0.0086 0.19961-0.24634 0.0102-0.84166 0.2463-1.3229 0.52461s-1.3993 0.79601-2.0402 1.1504l-1.1651 0.64444-2.5124-2.738c-1.3818-1.5059-2.6137-2.7379-2.7375-2.7379-0.12378 0-0.22506 1.7639-0.22506 3.9198v3.9198l-1.7859 0.6031c-0.98226 0.33171-1.9645 0.66937-2.1828 0.75035-0.21828 0.081-0.5457 0.17826-0.7276 0.21617-0.26209 0.0546-0.33073-3.7702-0.33073-18.429zm-102.51 16.816c-0.28248-0.21365-0.38635-0.38846-0.23084-0.38846 0.15552 0 0.43098 0.17859 0.61214 0.39687 0.41201 0.49645 0.2824 0.49359-0.3813-8e-3zm13.61 0.14071c-0.21828-0.14107-0.27781-0.25648-0.13229-0.25648s0.44318 0.11541 0.66146 0.25648c0.21828 0.14106 0.27781 0.25648 0.13229 0.25648s-0.44318-0.11542-0.66146-0.25648zm-21.547-8.9183c-0.14358-0.37708-0.11319-0.40747 0.14812-0.14811 0.18082 0.17947 0.26211 0.39297 0.18065 0.47443-0.0815 0.0815-0.22941-0.0654-0.32877-0.32632zm136.11 0.0871c0-0.0549 0.20836-0.2633 0.46302-0.46302 0.41964-0.32911 0.429-0.31975 0.0999 0.0999-0.34564 0.44072-0.56292 0.58088-0.56292 0.36312zm-129.12-1.223c-0.15576-0.29104-0.22367-0.52917-0.15091-0.52917 0.0728 0 0.25973 0.23813 0.41549 0.52917s0.22367 0.52917 0.15091 0.52917c-0.0728 0-0.25973-0.23813-0.41549-0.52917zm125.68 0.16469c0-0.0549 0.20836-0.2633 0.46302-0.46302 0.41964-0.32911 0.429-0.31975 0.0999 0.0999-0.34564 0.44073-0.56292 0.58089-0.56292 0.36313zm3.175-2.9104c0-0.0549 0.20836-0.2633 0.46302-0.46302 0.41964-0.32911 0.429-0.31975 0.0999 0.0999-0.34564 0.44072-0.56292 0.58088-0.56292 0.36312zm2.1167-2.2657c0-0.13693 0.1177-0.32171 0.26155-0.41062 0.14998-0.0927 0.19434 0.0135 0.10398 0.24897-0.17589 0.45837-0.36554 0.54224-0.36554 0.16165zm-139.41-2.022c0.0127-0.30822 0.0754-0.37092 0.15985-0.15985 0.0764 0.19099 0.067 0.4192-0.0209 0.50712-0.0879 0.0879-0.15046-0.0684-0.13897-0.34727zm5.8417-0.63941c0-0.3638 0.0601-0.51263 0.13345-0.33073 0.0734 0.1819 0.0734 0.47956 0 0.66146s-0.13345 0.0331-0.13345-0.33073zm135.95-0.36448c0-0.0549 0.20836-0.2633 0.46302-0.46302 0.41964-0.3291 0.429-0.31975 0.0999 0.0999-0.34564 0.44073-0.56292 0.58089-0.56292 0.36312zm3.8535-5.7985c0.09936-0.26094 0.2473-0.40778 0.32877-0.32632 0.08146 0.0815 1.7e-4 0.29496-0.18065 0.47443-0.26131 0.25936-0.2917 0.22897-0.14811-0.14811zm-143.55-0.70058c0-0.13693 0.1177-0.32171 0.26155-0.41062 0.14999-0.0927 0.19434 0.0135 0.10399 0.24897-0.17589 0.45837-0.36554 0.54224-0.36554 0.16165zm9.1899-2.1651c0.17948-0.18082 0.39297-0.26212 0.47443-0.18065 0.0815 0.0815-0.0654 0.2294-0.32632 0.32876-0.37708 0.14359-0.40747 0.1132-0.14811-0.14811zm0.0706-5.788c0.21828-0.14107 0.51593-0.25648 0.66146-0.25648 0.14552 0 0.086 0.11541-0.1323 0.25648-0.21828 0.14106-0.51593 0.25648-0.66145 0.25648-0.14553 0-0.086-0.11542 0.13229-0.25648z" fill="#1c9303"/>
    <path d="m-183.46 182.03c-0.16931-0.0799-0.23613-2.5628-0.18557-6.8955 0.0483-4.1371-0.0215-6.8917-0.17926-7.0818-0.14204-0.17115 0.84904 0.22639 2.2024 0.88343 2.8423 1.3799 4.5482 2.1207 4.8837 2.1207 0.12947 0 0.21265 0.83344 0.18485 1.8521l-0.0505 1.8521 5.9649-0.0264c3.4017-0.015 5.6807-0.1174 5.3034-0.23821-0.37852-0.12122-0.47722-0.22312-0.23075-0.23821 0.23689-0.0145 0.87062 0.15744 1.4083 0.38209 1.4944 0.62442 4.3601 1.1954 5.9388 1.1834 0.34874-3e-3 0.76545 0.10304 0.92605 0.23489 0.16059 0.13185 1.1919 0.31232 2.2918 0.40105 1.0999 0.0887 2.3501 0.2615 2.7781 0.38394 0.42806 0.12243 1.1602 0.19963 1.6271 0.17155 0.51307-0.0309 0.7837 0.0543 0.6842 0.21529-0.0986 0.15956 0.0131 0.19817 0.27855 0.0963 0.24375-0.0935 0.81383-0.0959 1.2668-5e-3l0.82368 0.16473-1.025 0.64121c-2.0849 1.3042-4.9918 2.4972-7.7326 3.1734-2.8026 0.6914-2.8805 0.69546-14.856 0.77462-6.6212 0.0438-12.158 0.0234-12.303-0.0452zm52.784-1.7221c0-1.6874 0.0433-1.8391 0.46302-1.6225 0.25467 0.13142 1.6668 0.2249 3.1382 0.20775l2.6752-0.0312 0.0458 1.6536 0.0458 1.6536h-6.3679zm32.411-0.15316c-2.0911-2.2621-2.3148-2.6239-1.4534-2.3505 0.33531 0.10642 0.52939 0.0845 0.44602-0.0504-0.08117-0.13134 0.40993-0.25706 1.0913-0.27937 0.68141-0.0223 2.0862-0.26885 3.1218-0.54784 1.4032-0.37803 1.8751-0.42285 1.8521-0.17592-0.01696 0.18224 1.011 1.409 2.2843 2.7262s2.3151 2.4618 2.3151 2.5436c0 0.0818-1.7562 0.14626-3.9026 0.14323l-3.9026-6e-3 -1.8521-2.0036zm13.629-1.888 3e-3 -3.9026 0.98915-0.47341c0.54403-0.26038 1.0769-0.47231 1.1842-0.47097 0.10727 1e-3 0.74222-0.2321 1.411-0.51877 0.66877-0.28667 1.2656-0.52122 1.3263-0.52122 0.06069 0 0.11036 2.2026 0.11036 4.8948v4.8948h-5.0271l3e-3 -3.9026zm27.436 3.3709c-0.20484-0.29244-2.0314-2.2867-4.0589-4.4318s-4.5605-4.8526-5.6288-6.0167c-1.0682-1.1642-2.3363-2.4981-2.8179-2.9642-0.76139-0.73699-0.8139-0.86717-0.40248-0.99774 0.26023-0.0826 1.171-0.6722 2.0239-1.3102l1.5507-1.16 0.49098 0.57029c0.27004 0.31365 1.4675 1.5823 2.661 2.8192 3.248 3.3661 10.318 10.998 12.073 13.031l0.85609 0.99219h-3.1874c-2.8926 0-3.2219-0.0492-3.5598-0.53172zm-66.399-2.8185c0.1819-0.0734 0.47955-0.0734 0.66146 0 0.1819 0.0734 0.0331 0.13345-0.33073 0.13345-0.36381 0-0.51263-0.06-0.33073-0.13345zm1.5875-0.0115c0.32742-0.0631 0.8632-0.0631 1.1906 0s0.0595 0.11466-0.59531 0.11466c-0.65484 0-0.92273-0.0516-0.59531-0.11466zm4.101 4e-3c0.25466-0.0666 0.67138-0.0666 0.92604 0s0.0463 0.121-0.46302 0.121-0.71768-0.0544-0.46302-0.121zm2.249-4e-3c0.32742-0.0631 0.8632-0.0631 1.1906 0s0.0595 0.11466-0.59531 0.11466c-0.65484 0-0.92273-0.0516-0.59531-0.11466zm-16.267-0.26121c0.25743-0.0671 0.61462-0.0627 0.79375 0.01 0.17913 0.0725-0.0315 0.12736-0.46806 0.12197-0.43656-5e-3 -0.58312-0.0647-0.32569-0.13178zm-36.104-4.7599c0.191-0.0764 0.4192-0.067 0.50712 0.0209 0.0879 0.0879-0.0684 0.15045-0.34726 0.13897-0.30823-0.0127-0.37092-0.0754-0.15986-0.15985zm37.361-27.931-0.01-26.657h6.3494l0.0688 11.897 0.0688 11.897 1.1906-1.0871c1.107-1.0107 2.2038-2.0376 7.4148-6.9423 1.0949-1.0306 3.6511-3.4216 5.6804-5.3134 4.7332-4.4124 8.1275-7.6095 9.7616-9.1943l1.2959-1.2568h8.075l-1.7602 1.6657c-0.96812 0.91615-2.5277 2.3747-3.4658 3.2412-0.93806 0.86649-2.4263 2.2519-3.3073 3.0786-0.88096 0.82675-2.0185 1.8871-2.5278 2.3564-0.96191 0.88628-2.9705 2.7602-6.3562 5.93-5.4335 5.0871-9.5495 8.9311-11.04 10.311-0.9095 0.8418-1.6536 1.629-1.6536 1.7494 0 0.12036 0.26789 0.49804 0.59531 0.8393s1.6073 1.6916 2.8443 3.0008 4.2135 4.4566 6.6146 6.9942c2.4011 2.5376 5.3141 5.6278 6.4734 6.867 1.1593 1.2392 2.8529 3.027 3.7636 3.9729l1.6558 1.7198-1.25 0.21883c-0.68751 0.12036-1.6962 0.22158-2.2414 0.22492-0.5453 3e-3 -0.94409 0.0835-0.88622 0.17804 0.0579 0.0946-0.57633 0.17166-1.4093 0.1713l-1.5145-5.3e-4 -1.9649-2.106c-1.0807-1.1583-2.4464-2.605-3.035-3.2149s-2.7317-2.8734-4.7625-5.03-4.7313-4.9959-6.0012-6.3094l-2.3088-2.3884-0.012 19.932-6.3355-0.0886zm-42.652 26.344c0.19099-0.0764 0.4192-0.067 0.50712 0.0209 0.0879 0.0879-0.0684 0.15045-0.34727 0.13897-0.30823-0.0127-0.37092-0.0754-0.15985-0.15985zm61.24-3e-3c0.25743-0.0671 0.61462-0.0627 0.79375 0.01 0.17913 0.0725-0.0315 0.12736-0.46806 0.12197-0.43656-5e-3 -0.58312-0.0647-0.32569-0.13178zm-31.351-0.48937c-0.0406-0.0388-1.2048-0.13718-2.5873-0.21853-1.3824-0.0814-3.1362-0.22667-3.8973-0.32293l-1.3838-0.17501 1.1743-1.3061c3.6835-4.0969 4.5235-10.05 2.1111-14.962-1.1983-2.4398-3.6637-4.9325-6.1932-6.2617-3.6025-1.8931-7.5785-2.508-16.49-2.5505l-5.7615-0.0275-0.0132 9.4123c-7e-3 5.1768-0.0458 9.4123-0.0856 9.4123-0.30728 0-4.0458-2.1481-5.3751-3.0885l-1.6511-1.168-0.0687-26.34c-0.0378-14.487 7e-3 -26.462 0.0995-26.612 0.27711-0.44826 19.099-0.0833 22.255 0.43149 8.0356 1.311 12.774 5.1178 15.462 12.421 0.62067 1.6864 0.76317 7.033 0.246 9.2301-0.39019 1.6577-1.9374 5.1347-2.6371 5.9263-0.16767 0.1897-0.66204 0.81031-1.0986 1.3791-0.43656 0.56883-1.6026 1.6139-2.5912 2.3223-3.3058 2.3689-3.1272 2.0738-1.5681 2.5916 6.8961 2.2905 11.749 7.0677 13.726 13.513 0.75275 2.4532 0.69531 8.6077-0.1037 11.112-0.94347 2.9576-2.2166 5.2862-2.9093 5.3213-0.32215 0.0163-0.61891-2e-3 -0.65948-0.0409zm-19.653-33.83c1.0186-0.22666 2.7208-0.85026 3.7826-1.3858 7.9455-4.0073 8.9602-15.609 1.7356-19.843-2.5864-1.5158-4.0726-1.7527-11.797-1.8812l-7.0722-0.11756-0.0716 11.865c-0.0394 6.526-0.0534 11.925-0.0311 11.998 0.0932 0.30529 11.686-0.24271 13.453-0.63595zm84.534 33.869c0-0.0572 0.18478-0.17489 0.41062-0.26156 0.23546-0.0903 0.34166-0.046 0.24897 0.10399-0.15538 0.25141-0.65958 0.37185-0.65958 0.15757zm-78.118-1.3942c0.1819-0.0734 0.47956-0.0734 0.66146 0s0.0331 0.13346-0.33073 0.13346c-0.3638 0-0.51263-0.0601-0.33073-0.13346zm81.752-0.38677c0.17948-0.18082 0.39297-0.26211 0.47443-0.18065 0.08146 0.0815-0.06538 0.22941-0.32632 0.32877-0.37708 0.14358-0.40747 0.11319-0.14811-0.14812zm-87.556-0.67707c0.191-0.0764 0.4192-0.067 0.50712 0.0209 0.0879 0.0879-0.0684 0.15045-0.34726 0.13896-0.30823-0.0127-0.37092-0.0754-0.15986-0.15985zm77.837-20.216v-18.497h5.0271v9.6793c0 5.9007 0.09671 9.6449 0.24774 9.5911 0.13626-0.0485 1.059-0.85672 2.0505-1.796 5.7955-5.4904 12.647-11.922 13.974-13.118 0.43656-0.39342 1.6578-1.5347 2.7139-2.5361l1.9202-1.8208h3.0408c1.6724 0 3.0408 0.0997 3.0408 0.22154 0 0.12185-0.56555 0.74164-1.2568 1.3773s-2.8029 2.5898-4.6926 4.3425c-1.8897 1.7527-3.5711 3.3058-3.7363 3.4513-0.16522 0.14552-1.1194 1.0335-2.1204 1.9732-2.1422 2.0111-4.2477 3.9819-9.0306 8.4526l-3.5065 3.2776 0.86062 0.83973c0.47334 0.46186 1.9917 2.0638 3.3742 3.56s2.7517 2.8197 3.0427 2.9412c0.52358 0.21867 0.52344 0.22118-0.01323 0.23777-0.29832 9e-3 -0.65551 0.11966-0.79375 0.24542-0.50631 0.46055-3.8232 2.1555-3.8232 1.9536 0-0.11451-1.1855-1.456-2.6345-2.9812l-2.6345-2.773-0.0227 8.2365-1.7859 0.6031c-0.98226 0.33171-1.9645 0.66937-2.1828 0.75035-0.21828 0.081-0.5457 0.17826-0.7276 0.21617-0.26209 0.0546-0.33073-3.7702-0.33073-18.429zm-102.51 16.816c-0.28248-0.21365-0.38635-0.38846-0.23084-0.38846 0.15552 0 0.43098 0.17859 0.61214 0.39687 0.41201 0.49645 0.2824 0.49359-0.3813-8e-3zm13.61 0.14071c-0.21828-0.14107-0.27781-0.25648-0.13229-0.25648s0.44318 0.11541 0.66146 0.25648c0.21828 0.14106 0.27781 0.25648 0.13229 0.25648s-0.44318-0.11542-0.66146-0.25648zm-21.547-8.9183c-0.14358-0.37708-0.11319-0.40747 0.14812-0.14811 0.18082 0.17947 0.26211 0.39297 0.18065 0.47443-0.0815 0.0815-0.22941-0.0654-0.32877-0.32632zm136.11 0.0871c0-0.0549 0.20836-0.2633 0.46302-0.46302 0.41964-0.32911 0.429-0.31975 0.0999 0.0999-0.34564 0.44072-0.56292 0.58088-0.56292 0.36312zm-129.12-1.223c-0.15576-0.29104-0.22367-0.52917-0.15091-0.52917 0.0728 0 0.25973 0.23813 0.41549 0.52917s0.22367 0.52917 0.15091 0.52917c-0.0728 0-0.25973-0.23813-0.41549-0.52917zm125.68 0.16469c0-0.0549 0.20836-0.2633 0.46302-0.46302 0.41964-0.32911 0.429-0.31975 0.0999 0.0999-0.34564 0.44073-0.56292 0.58089-0.56292 0.36313zm3.175-2.9104c0-0.0549 0.20836-0.2633 0.46302-0.46302 0.41964-0.32911 0.429-0.31975 0.0999 0.0999-0.34564 0.44072-0.56292 0.58088-0.56292 0.36312zm2.1167-2.2657c0-0.13693 0.1177-0.32171 0.26155-0.41062 0.14998-0.0927 0.19434 0.0135 0.10398 0.24897-0.17589 0.45837-0.36554 0.54224-0.36554 0.16165zm-139.41-2.022c0.0127-0.30822 0.0754-0.37092 0.15985-0.15985 0.0764 0.19099 0.067 0.4192-0.0209 0.50712-0.0879 0.0879-0.15046-0.0684-0.13897-0.34727zm5.8417-0.63941c0-0.3638 0.0601-0.51263 0.13345-0.33073 0.0734 0.1819 0.0734 0.47956 0 0.66146s-0.13345 0.0331-0.13345-0.33073zm135.95-0.36448c0-0.0549 0.20836-0.2633 0.46302-0.46302 0.41964-0.3291 0.429-0.31975 0.0999 0.0999-0.34564 0.44073-0.56292 0.58089-0.56292 0.36312zm3.8535-5.7985c0.09936-0.26094 0.2473-0.40778 0.32877-0.32632 0.08146 0.0815 1.7e-4 0.29496-0.18065 0.47443-0.26131 0.25936-0.2917 0.22897-0.14811-0.14811zm-143.55-0.70058c0-0.13693 0.1177-0.32171 0.26155-0.41062 0.14999-0.0927 0.19434 0.0135 0.10399 0.24897-0.17589 0.45837-0.36554 0.54224-0.36554 0.16165zm9.1899-2.1651c0.17948-0.18082 0.39297-0.26212 0.47443-0.18065 0.0815 0.0815-0.0654 0.2294-0.32632 0.32876-0.37708 0.14359-0.40747 0.1132-0.14811-0.14811zm0.0706-5.788c0.21828-0.14107 0.51593-0.25648 0.66146-0.25648 0.14552 0 0.086 0.11541-0.1323 0.25648-0.21828 0.14106-0.51593 0.25648-0.66145 0.25648-0.14553 0-0.086-0.11542 0.13229-0.25648z" fill="#0a490e"/>
    <path d="m-141.79 38.239v9.9043c0 9.2058-0.0326 9.9135-0.46302 10.036-0.25467 0.07255-1.1774 0.26351-2.0505 0.42478-0.87312 0.16127-1.8377 0.34592-2.1435 0.41031-0.58543 0.12325-0.54835 0.18352-8.7907-14.161-1.3797-2.4011-2.6556-4.5267-2.8355-4.7237-0.31003-0.33943-8.0991 4.0031-28.167 15.703-1.6735 0.97572-4.0845 2.365-5.3578 3.0872-1.2733 0.72211-2.3151 1.3582-2.3151 1.4134 0 0.11895 6.5867 11.52 6.8776 11.904 0.7183 0.94962 2.1343 3.9219 1.9477 4.0881-1.0216 0.90971-5.1211 3.9817-5.3134 3.9817-0.13399 0-1.6464-0.83344-3.361-1.8521-1.7146-1.0186-3.1449-1.8521-3.1786-1.8521s-2.6054-1.4883-5.7144-3.3073c-3.109-1.819-5.7809-3.3073-5.9381-3.3073-0.15722 0-1.8753 2.7682-3.8179 6.1516-1.9426 3.3834-4.1572 7.2231-4.9211 8.5328-0.76396 1.3097-3.2324 5.5959-5.4855 9.525-2.253 3.9291-4.7532 8.2748-5.5562 9.6573-0.80303 1.3824-1.4147 2.5915-1.3591 2.6866 0.10331 0.17676 3.5168 2.2109 9.8909 5.8942 1.9645 1.1352 3.6748 2.1589 3.8003 2.2748 0.12555 0.11588-0.36384 1.8585-1.0873 3.8721-0.72343 2.0136-1.4635 4.216-1.6448 4.8943-0.23531 0.87992-0.49267 1.2768-0.89762 1.3854-0.31215 0.0838-4.4072 0.15355-9.1002 0.15555l-8.5328 4e-3v48.948l19.182 0.012 0.56843 1.7808c0.31277 0.97932 1.0091 2.8937 1.5472 4.2545 0.57728 1.4598 0.88106 2.5714 0.74104 2.7115-0.22434 0.22434-8.0548 4.7766-11.676 6.7877-1.2668 0.70358-1.645 1.0452-1.5518 1.401 0.0677 0.25877 1.6705 3.1297 3.5621 6.38 1.8915 3.2503 5.6072 9.6602 8.2569 14.244 6.934 11.996 7.9811 13.758 8.1737 13.758 0.0947 0 2.6715-1.4402 5.7263-3.2003 10.11-5.825 11.54-6.6228 11.725-6.5397 0.41205 0.18551 5.8679 4.813 5.8679 4.977 0 0.0976-0.56908 1.1199-1.2645 2.2717-0.69544 1.1518-1.9651 3.3446-2.8215 4.8726s-2.0702 3.6407-2.6975 4.6948l-1.1405 1.9162 0.58859 0.36225c0.99881 0.61421 3.715 2.2061 4.6896 2.7487 0.50932 0.28353 2.1167 1.2058 3.5719 2.0495s5.4438 3.1421 8.8635 5.1072 6.6344 3.846 7.1438 4.1796v-1e-3c1.0035 0.65728 1.3229 0.75851 1.3229 0.41961 0-0.16095 5.8454-10.388 7.862-13.755 0.16339-0.27283 0.71831-0.14975 2.589 0.57361 10.259 3.9668 25.128 6.5805 36.909 6.488l3.5719-0.0284-3.8365-0.36329c-2.11-0.19994-4.0432-0.48382-4.2959-0.63096s-0.68651-0.26769-0.96428-0.26769c-0.94671 0-9.419-1.8011-11.012-2.3409-0.87313-0.29595-2.6366-0.8526-3.9191-1.2366-2.7368-0.8195-7.338-2.6859-11.427-4.6354-3.2298-1.5399-8.9469-4.7271-9.0842-5.0643-0.0485-0.11906-0.20967-0.21653-0.35863-0.21653-0.38731 0-4.4643-2.8663-8.5514-6.012-11.89-9.6875-17.132-18.126-21.676-25.326-1.8304-3.2845-4.8738-9.8166-5.4307-11.656-0.17628-0.58207-0.49934-1.4556-0.71778-1.941-0.5665-1.2587-1.772-5.7566-2.8836-10.759-1.1054-4.9746-1.5181-17.31-0.7922-23.68 0.9675-8.4901 3.6203-17.154 7.8181-25.532 1.531-3.0559 3.2896-6.2222 3.9078-7.0357 0.6182-0.81359 1.124-1.5767 1.124-1.696 0-0.20911 2.3469-3.4415 3.6163-4.9806l0.61702-0.74827 1.0583-1.2909c0-0.1193 0.46103-0.67222 1.0247-1.2289 0.56371-0.55665 1.7809-1.8458 2.7048-2.8644 0.92384-1.0186 2.112-2.2093 2.6407-2.6458 0.52863-0.43657 1.9944-1.707 3.2572-2.8236 9.4092-8.3199 22.799-15.332 35.352-18.514 1.6735-0.42415 3.2808-0.83902 3.5719-0.92191 1.3291-0.37854 5.588-1.1544 8.599-1.5663 4.8214-0.65961 18.101-0.82286 23.576-0.2899 4.2393 0.41266 11.113 1.4653 11.349 1.7379 0.07276 0.08407 0.31088 0.17738 0.52917 0.20774 1.4349 0.19959 8.5854 2.0974 9.2568 2.4567 0.24969 0.13363 1.5732 0.61233 2.9409 1.064 1.3678 0.45169 3.201 1.1607 4.0742 1.5756 0.87312 0.41492 2.1233 0.98876 2.7781 1.2749 5.6894 2.4856 12.55 6.6324 18.314 11.07 3.3142 2.5514 3.3406 2.5734 5.763 4.8075 0.94588 0.87234 2.0982 1.926 2.5606 2.3415 1.3402 1.2042 5.3494 5.6225 6.056 6.674 0.35494 0.52823 1.309 1.7936 2.1203 2.8122 1.9031 2.3895 4.5052 6.2172 5.486 8.0698 0.42375 0.80036 0.91673 1.6338 1.0955 1.8521 0.61877 0.75536 3.5617 7.0258 4.8829 10.404 0.7297 1.8657 1.6376 4.5446 2.0174 5.9531 0.37985 1.4085 0.84848 3.0368 1.0413 3.6189 0.43758 1.3211 1.0735 4.8136 1.4454 7.9375 0.47883 4.022 0.51248 3.8827 0.41703-1.7198-0.1272-7.4659-0.82089-12.295-2.8298-19.703-1.6273-6.0003-3.5557-11.069-6.2787-16.501-0.88532-1.7661-1.6097-3.3191-1.6097-3.451 0-0.13187 2.0241-1.397 4.4979-2.8112s4.498-2.7072 4.4979-2.8732c-1.27e-4 -0.16601-2.5128-4.6476-5.5831-9.9591-3.0703-5.3115-6.4335-11.171-7.474-13.021-1.0405-1.8502-1.9715-3.3682-2.0686-3.3734-0.09712-0.0052-1.0496 0.50633-2.1167 1.1369-8.1582 4.821-10.899 6.2942-11.43 6.1448-0.31008-0.08714-1.246-0.7814-2.08-1.5431l-1.5167-1.3849 2.3115-3.9677c5.2841-9.0717 6.4826-11.277 6.2518-11.502-0.13126-0.12801-0.95312-0.64145-1.8262-1.141-0.87312-0.49956-3.0758-1.7739-4.8948-2.8314-5.612-3.2625-26.773-15.411-28.284-16.237-1.7178-0.93981-1.1949-1.4634-4.8488 4.8571-5.2683 9.1132-6.3318 10.848-6.6394 10.828-0.17158-0.01127-0.90744-0.22984-1.635-0.48576l-1.3229-0.46561-0.0692-10.891-0.0687-10.891h-23.413z" fill="url(#linearGradient908)"/>
   </g>
   <path d="m-102.03 223.32c-1.6278-0.46728-3.189-1.9301-3.57-3.3452-0.66265-2.4609 0.56519-5.2668 2.7926-6.3819 2.1179-1.0602 5.0345-0.79524 6.444 0.58551 1.7269 1.6917 2.1583 4.1145 1.1014 6.1861-1.3054 2.5587-4.0203 3.7443-6.7681 2.9555zm3.0347-0.47582c1.3761-0.5506 2.0031-1.9135 1.9847-4.3141-0.0074-0.96572-0.08225-2.0535-0.16638-2.4173-0.08413-0.36381-0.16181-0.74463-0.17262-0.84627-0.01082-0.10164-0.31991-0.50878-0.68688-0.90475-0.52204-0.56329-0.97122-0.74515-2.0643-0.8358-1.3307-0.11035-1.4364-0.071-2.2253 0.82744-0.9591 1.0924-1.2653 2.5458-1.0642 5.0511 0.15259 1.901 0.72002 2.934 1.8947 3.4494 1.0838 0.47555 1.2893 0.47475 2.5002-0.01zm-17.278-0.0507c0.26395-0.6028 0.48848-7.812 0.27037-8.6811-0.0923-0.36762-0.43209-0.77476-0.75516-0.90475-0.40858-0.16441 0.17779-0.24028 1.9262-0.24923 2.1913-0.0112 2.4288 0.0299 1.8521 0.32093-0.61518 0.31045-0.66687 0.48833-0.73884 2.5426l-0.0774 2.2088 0.73884-0.62829c0.40636-0.34556 1.3315-1.2649 2.0558-2.043 1.2526-1.3456 1.2924-1.4327 0.81306-1.7832-0.72879-0.53291-0.48582-0.60003 1.4418-0.39831 1.554 0.16263 1.6369 0.20001 0.8599 0.38778-0.47295 0.11429-0.8599 0.30867-0.8599 0.43196s-0.15834 0.26266-0.35188 0.30971c-0.19353 0.0471-0.92342 0.73207-1.622 1.5223l-1.2701 1.4367 1.159 0.34995c1.4262 0.43064 1.9063 1.0822 2.3039 3.1266 0.19827 1.0195 0.50885 1.7532 0.86798 2.0505 0.54787 0.45361 0.53194 0.46302-0.78369 0.46302-1.5222 0-1.7103-0.19682-2.0235-2.1167-0.33072-2.0275-0.36704-2.1594-0.70796-2.5701-0.50282-0.60587-1.347-0.83853-1.9374-0.534-0.79359 0.40931-0.8722 0.64602-0.80037 2.41 0.0945 2.3199 0.0817 2.2757 0.73422 2.538 0.439 0.17646 0.0842 0.24369-1.3512 0.25606-1.7579 0.0152-1.9269-0.0281-1.7438-0.44625zm28.07 0c0.24921-0.50891 0.21889-7.7364-0.03674-8.7549-0.15076-0.60067-0.2361-0.62621-1.5224-0.45557-1.0197 0.13527-1.5491 0.37588-2.1035 0.95597l-0.74083 0.77521 4e-3 -0.72519c0.0077-1.3722 0.08683-1.3946 5.5022-1.5591l5.0667-0.15386 0.26976 0.70952c0.5146 1.3535 0.33228 1.5785-0.60919 0.75192-0.69691-0.6119-1.1648-0.78477-2.2591-0.83471l-1.3802-0.063 0.04241 3.5193c0.05956 4.9418 0.21175 5.832 1.0362 6.061 0.40641 0.11286-0.14009 0.19386-1.4174 0.21006-1.8944 0.024-2.0587-0.0147-1.8521-0.43664zm-40.197 5e-3c-0.99815-0.10401-0.99943-0.10569-0.42974-0.567 0.50621-0.4099 0.58601-0.79601 0.69968-3.3855 0.12254-2.7913 0.10094-2.9483-0.48004-3.4896l-0.60835-0.56676h0.67827c0.37305 0 1.0428-0.0729 1.4883-0.16201l0.81006-0.16201-0.15369 3.727c-0.10932 2.6512-0.0647 3.8342 0.15464 4.0984 0.24664 0.29719 0.18812 0.4037-0.29258 0.53249-0.33049 0.0885-0.66042 0.14261-0.73318 0.12013-0.0728-0.0225-0.58279-0.0878-1.1334-0.14518zm48.189-0.30078c0.31331-0.27173 0.56965-0.59685 0.56965-0.72249 0-0.19491 0.51921-1.6199 1.3402-3.6782 0.11608-0.29104 0.62181-1.6556 1.1238-3.0322 0.50203-1.3767 1.0435-2.5466 1.2032-2.5999 0.15971-0.0532 0.57438 0.53737 0.92148 1.3125 1.0984 2.4527 2.0498 4.5454 2.6255 5.7749 0.30663 0.65484 0.56523 1.2502 0.57467 1.3229 0.0094 0.0728 0.28599 0.50943 0.61455 0.97037l0.59739 0.83809-1.8552 0.088c-1.6834 0.0798-2.3757-0.0907-1.5232-0.3752 0.26342-0.0879 0.26059-0.37299-0.01392-1.4008-0.48634-1.821-0.66702-1.9629-2.4665-1.9376-1.7533 0.0247-1.9897 0.23981-2.2415 2.0406-0.10391 0.74288-0.02389 1.1445 0.29072 1.4591 0.40239 0.40239 0.33317 0.43408-0.94821 0.43408-1.3765 0-1.3799-2e-3 -0.81265-0.49405zm4.9702-3.9852c0.08393-0.0447-0.61899-1.8076-1.0032-2.516l-0.42175-0.77751-0.4068 0.78666c-0.22374 0.43266-0.49151 1.2382-0.59506 1.7902l-0.18827 1.0036 1.2901-0.13416c0.70954-0.0738 1.3058-0.14256 1.325-0.15281zm12.504 3.5965c0.48894-0.60092 0.22402-8.0634-0.32534-9.1646l-0.36312-0.7279 2.5413-0.30305c3.2686-0.38979 4.3628-0.12894 4.9918 1.19 0.39794 0.83449 0.40246 0.99984 0.04475 1.638-0.21883 0.39037-0.7759 0.94789-1.2379 1.2389-1.037 0.65321-1.0585 0.81767-0.13285 1.015 0.40018 0.0853 1.1146 0.39609 1.5875 0.69064 1.6795 1.046 0.88854 3.4218-1.3891 4.1725-0.43656 0.14389-1.7867 0.287-3.0004 0.31802-1.2136 0.031-2.4043 0.13039-2.6458 0.2208-0.38439 0.14387-0.39323 0.10788-0.07085-0.28832zm5.1818-1.119c0.6404-0.59351 0.71395-0.8179 0.58447-1.7832-0.1949-1.4531-0.96699-2.0884-2.4096-1.9826l-1.0791 0.0791 0.03237 1.1906c0.09472 3.4837-0.01416 3.175 1.1196 3.175 0.72796 0 1.2293-0.19425 1.7523-0.67894zm-0.75206-4.9068c0.27264-0.22627 0.36239-0.74933 0.30712-1.7899-0.06707-1.2628-0.174-1.5239-0.75788-1.8505-0.41801-0.2338-0.95293-0.31167-1.3891-0.2022-0.66668 0.16732-0.70906 0.26907-0.70566 1.6943 0.0058 2.4442 0.17127 2.7907 1.2489 2.6159 0.50125-0.0813 1.0847-0.29176 1.2966-0.46759zm-81.934 5.5589c-0.21276-0.30232-0.74403-0.93911-1.1806-1.4151s-1.3891-1.5518-2.1167-2.3908c-3.1218-3.5997-3.0376-3.5231-3.0617-2.7818-0.0118 0.36381-0.065 0.8945-0.11819 1.1793-0.0532 0.28483-0.12169 1.4638-0.15226 2.62-0.0447 1.693 0.0295 2.1643 0.38152 2.4217 0.66583 0.48687 0.52646 0.66535-0.42282 0.54148-0.47294-0.0617-1.0134-0.12024-1.2009-0.13007-0.22371-0.0117-0.15544-0.21707 0.19844-0.59691 0.29705-0.31884 0.5408-0.94305 0.54241-1.3891 2e-3 -0.4455 0.0773-1.9569 0.16817-3.3588 0.1781-2.7473-0.13567-4.0672-1.0347-4.3526-0.81065-0.25729-0.2786-0.52899 0.82905-0.42336 0.88247 0.0842 1.2347 0.30732 2.0703 1.3117 0.5538 0.66566 1.3046 1.5372 1.6684 1.9367s1.0782 1.24 1.5875 1.8678c0.50933 0.62777 1.2391 1.4734 1.6217 1.8792l0.69565 0.73781 0.12969-0.67846c0.20478-1.0712 0.24154-5.2639 0.0505-5.7617-0.0951-0.24784-0.33174-0.45061-0.52587-0.45061-0.19412 0-0.42008-0.10861-0.50212-0.24136-0.082-0.13274 0.0598-0.20138 0.31512-0.15253 0.25535 0.0488 1.0596 0.11414 1.7872 0.14509 0.72761 0.031 1.0486 0.10872 0.71335 0.17281-0.86864 0.16606-1.0782 0.9617-1.2578 4.7749-0.23093 4.9042-0.419 5.6236-1.1854 4.5346zm88.381-0.19078c0-0.15414 0.1319-0.36178 0.29311-0.46141 0.19992-0.12356 0.2385-0.90661 0.12133-2.463-0.09448-1.255-0.23057-3.0558-0.30243-4.0016-0.16604-2.1856-0.31135-2.6458-0.83539-2.6458-0.23273 0-0.37059-0.0525-0.30637-0.11677 0.16524-0.16524 2.0352-0.362 5.2633-0.55382l2.7784-0.16509 0.3259 0.86341c0.40547 1.0742 0.32001 1.1698-0.4844 0.54154-0.94865-0.74088-1.7282-0.90709-3.3209-0.70809l-1.4374 0.17959 0.07691 2.0301c0.07549 1.9926 0.09025 2.0317 0.79945 2.1134 0.4916 0.0566 0.93046-0.12468 1.373-0.56725 0.35777-0.35777 0.71723-0.58374 0.79881-0.50216 0.08158 0.0816 0.1465 0.69403 0.14428 1.361-0.0024 0.71551-0.09137 1.0751-0.21704 0.87711-0.20517-0.32325-1.671-0.85506-2.3568-0.85506-0.23492 0-0.33248 0.53789-0.33248 1.8332 0 2.3129 0.2999 2.6647 2.2714 2.6647 1.4572 0 2.1401-0.24825 3.2176-1.1696 0.73024-0.62444 0.96516-0.4364 0.73933 0.5918-0.16682 0.75955-0.22886 0.78759-2.0757 0.9385-5.5732 0.45539-6.5339 0.48706-6.5339 0.21539zm-102.2-0.42258c-0.21508-0.21507-0.44985-1.2053-0.5489-2.3151-0.14107-1.5808-0.28911-2.0418-0.80079-2.4936-0.74477-0.65768-2.1807-0.57559-2.407 0.13762-0.3161 0.99596-0.19997 4.0516 0.16272 4.2814 0.43191 0.27365 0.18034 0.31039-1.622 0.23691-1.5186-0.0619-1.6632-0.16544-1.2214-0.87432 0.37342-0.59909 0.59632-2.259 0.86142-6.4148 0.14816-2.3226 0.13413-2.4029-0.47239-2.7046-0.55426-0.27573-0.49019-0.29911 0.56555-0.20639 0.65484 0.0575 1.6669 0.12129 2.249 0.14172 0.9098 0.0319 0.97478 0.0707 0.46302 0.27644-0.32742 0.13161-0.60098 0.33242-0.60792 0.44625-7e-3 0.11383-0.0704 1.06-0.14101 2.1027-0.11979 1.7685-0.0944 1.8868 0.3781 1.7633 0.27859-0.0729 1.2363-0.84212 2.1282-1.7095 1.4231-1.384 1.5862-1.6433 1.3318-2.1186-0.27356-0.51118-0.23285-0.53335 0.72482-0.39469 0.55806 0.0808 1.2408 0.15141 1.5171 0.1569 0.30469 6e-3 5e-3 0.27448-0.76147 0.68202-1.2012 0.63871-3.738 2.9597-3.4976 3.2001 0.0623 0.0623 0.35973 0.1607 0.66102 0.21872 1.328 0.25576 2.0806 0.96529 2.2672 2.1377 0.0686 0.43062 0.20448 1.2908 0.30206 1.9115 0.13349 0.84923 0.35158 1.2232 0.88106 1.5108 0.69066 0.37513 0.67835 0.38238-0.66651 0.39278-0.8436 7e-3 -1.5146-0.13383-1.746-0.36523zm113.75-0.41695c0.65346-0.26358 0.95921-1.3125 0.77353-2.6536-0.07-0.50558-0.19697-1.8122-0.28218-2.9036-0.0852-1.0914-0.22489-2.2225-0.31043-2.5135-0.18585-0.63237-0.99072-1.4448-1.4679-1.4816-0.34952-0.027 0.73486-0.42873 1.2859-0.47642 0.31641-0.0274 4.489 3.1145 5.6484 4.2532 0.3638 0.35729 1.127 0.99795 1.6959 1.4237l1.0344 0.77406-0.18683-2.1142c-0.3387-3.8326-0.42164-4.1219-1.2861-4.4853l-0.78231-0.32894 1.0192-0.16838c0.56056-0.0926 1.3764-0.16163 1.8129-0.15338 0.75778 0.0143 0.76704 0.0279 0.20426 0.2995-0.32422 0.15648-0.65264 0.48347-0.72981 0.72663-0.07718 0.24317 0.03926 2.1439 0.25876 4.2238 0.55998 5.3062 0.55178 5.3548-0.72338 4.28-0.32853-0.27692-1.4903-1.2215-2.5817-2.0991s-2.4606-2.018-3.0427-2.5342c-0.58208-0.51618-1.1588-0.94079-1.2816-0.94359-0.20693-5e-3 -0.14875 0.99314 0.25424 4.3606 0.1654 1.3821 0.68266 2.2259 1.3991 2.2821 0.56572 0.0444-1.7813 0.45606-2.6207 0.45966-0.63529 3e-3 -0.63889-6e-3 -0.09107-0.22722zm-126.78-0.53014c-0.43656-0.11109-0.59341-0.21606-0.34855-0.23328 0.5639-0.0396 0.66621-0.39286 1.0053-3.4709 0.1523-1.3824 0.34523-3.0493 0.42872-3.7042l0.1518-1.1906-0.81708 1.1222c-0.44939 0.6172-0.81708 1.1768-0.81708 1.2435 0 0.0667-0.34333 0.63331-0.76295 1.2591-0.41963 0.62575-1.1594 1.9546-1.6439 2.953-0.4845 0.99839-0.93124 1.6532-0.99275 1.4552-0.47875-1.5413-3.7304-8.7377-3.7492-8.2976-6e-3 0.14552-0.11793 1.098-0.24827 2.1167-0.63377 4.953-0.63418 5.3283-6e-3 5.768 0.55251 0.387 0.52447 0.39973-0.57183 0.25963-1.4264-0.18227-1.4727-0.22247-0.93775-0.81357 0.4598-0.50807 1.2401-5.2236 1.2401-7.4941 0-0.99619-0.12129-1.3468-0.57609-1.6654-0.54192-0.37957-0.49875-0.39512 0.7276-0.262 0.71704 0.0778 1.4279 0.17994 1.5797 0.22691 0.15179 0.047 0.7995 1.319 1.4394 2.8267 1.35 3.1811 1.9104 4.2586 2.2789 4.3814 0.14544 0.0485 0.91358-1.0438 1.707-2.4274 0.7934-1.3835 1.6309-2.8439 1.8612-3.2454 0.39656-0.69141 0.50112-0.724 1.9844-0.61858 0.86117 0.0612 1.3677 0.15726 1.1255 0.21345-0.65991 0.15314-1.158 2.708-1.405 7.2072-0.0644 1.1727 6e-3 2.1137 0.17316 2.3151 0.22236 0.26792 0.0381 0.33277-0.87523 0.30806-0.63628-0.0172-1.5141-0.1222-1.9506-0.23328zm141.52-1.2716c-1.9777-0.81442-2.7067-1.8815-2.9273-4.2847-0.11518-1.2548-0.02585-1.6556 0.6487-2.9104 1.3253-2.4653 3.7768-3.3598 7.6666-2.7971 1.0832 0.15669 1.3928 0.12264 1.4058-0.15462 0.02527-0.53542 0.41222 0.5602 0.62202 1.7611l0.18488 1.0583-0.61027-0.68963c-0.79717-0.90083-2.6319-1.8239-3.6252-1.8239-2.408 0-3.9965 1.8701-3.9965 4.7051 0 2.7938 1.384 4.7724 3.5054 5.0116 1.3458 0.1517 2.8287-0.46319 2.8714-1.1907 0.12818-2.1816-0.28332-3.2213-1.2929-3.2666-0.64518-0.029 0.42719-0.21423 3.515-0.60721 0.84407-0.10742 0.93401-0.0834 0.44424 0.11852-0.54958 0.22661-0.60984 0.4132-0.57364 1.7761 0.02225 0.83762 0.0307 1.6625 0.01879 1.833-0.01193 0.17054-0.75506 0.67656-1.6514 1.1245-1.3423 0.67076-1.9373 0.81179-3.3734 0.79961-1.0009-8e-3 -2.2073-0.20571-2.8322-0.46302zm-158.98-0.46293c-0.58208-0.22933-1.2603-0.48089-1.5072-0.55901-0.52012-0.16461-0.65861-0.6667-0.51825-1.8789l0.10017-0.86509 0.79706 1.2568c1.0859 1.7124 1.4416 1.9364 2.9535 1.861 1.0354-0.0517 1.3961-0.19904 1.793-0.73258 0.40738-0.54757 0.44711-0.80967 0.22061-1.4552-0.15195-0.43303-0.54208-0.92507-0.86696-1.0934s-1.1864-0.6054-1.9145-0.97125c-2.5693-1.291-3.2113-3.1889-1.6295-4.8176 1.1314-1.165 2.5983-1.3654 4.5016-0.61524 1.0521 0.4147 1.3585 0.44961 1.5329 0.17467 0.12965-0.20438 0.21922 0.24607 0.22105 1.1116l3e-3 1.4552-0.49095-0.80508c-1.358-2.2268-4.401-2.5356-4.9122-0.49849-0.25498 1.0159 0.21199 1.5614 2.3332 2.7256 3.2331 1.7744 3.8456 3.1655 2.1895 4.9726-0.7717 0.84207-1.0623 0.97475-2.3151 1.0572-0.89019 0.0585-1.8334-0.0636-2.491-0.32274zm170.79-0.59215 0.64226-0.52007-0.33298-3.4053c-0.41815-4.2763-0.69376-5.3538-1.44-5.6299-0.44505-0.16463-0.21694-0.25394 1.0061-0.39388 0.86989-0.0995 1.9388-0.23598 2.3754-0.3032 0.76665-0.11805 0.77251-0.11138 0.1714 0.19546-0.60029 0.30642-0.61598 0.39313-0.44269 2.4463 0.09881 1.1707 0.22124 2.1702 0.27205 2.221 0.05081 0.0508 0.36909-0.23214 0.70727-0.62879 0.33819-0.39665 0.73395-0.85417 0.87947-1.0167 1.5888-1.7747 2.1878-3.3382 1.2788-3.3382-0.88341 0-0.18436-0.21923 1.2347-0.38722 0.80036-0.0947 1.6933-0.22922 1.9844-0.29883 0.29104-0.0696 0.07035 0.11146-0.49043 0.40238-0.56078 0.29093-1.1856 0.66672-1.3885 0.8351-0.35137 0.29161-2.4867 3.3656-2.4867 3.5798 0 0.0562 0.46709 0.10214 1.038 0.10214 0.8063 0 1.2197 0.18171 1.8521 0.8141 0.44775 0.44776 0.8141 0.98828 0.8141 1.2012 0 0.79326 1.0976 2.5107 1.7673 2.7653 0.90075 0.34247 0.77616 0.41479-1.0457 0.60708-1.7191 0.18144-1.5057 0.40422-2.7476-2.8674-0.30975-0.81596-0.76228-1.4636-1.1907-1.7041-0.62023-0.34812-0.76469-0.3396-1.4099 0.0831-0.6897 0.4519-0.71202 0.53706-0.5505 2.1009 0.23066 2.2334 0.33359 2.4814 1.1543 2.7816 0.68804 0.25167 0.67488 0.26329-0.34284 0.30284-0.58208 0.0226-1.2965 0.0846-1.5875 0.13782-0.29104 0.0532-0.94196 0.17338-1.4465 0.2671l-0.91732 0.17042zm14.157-1.8922c-1.3525-0.55356-1.5753-1.2089-2.3769-6.9919-0.12004-0.86596-0.38935-1.4842-0.82072-1.8839l-0.64205-0.59503 1.3907-0.17582c0.76488-0.0967 1.7939-0.24752 2.2868-0.33514l0.89614-0.1593-0.56541 0.56541c-0.72476 0.72476-0.72631 0.62776 0.0996 6.254 0.22594 1.5392 1.3595 2.5135 2.9242 2.5135 1.4276 0 2.6546-0.57158 2.9023-1.352 0.25863-0.81487 0.17936-3.5709-0.15133-5.2619-0.43101-2.2039-0.7697-2.908-1.4114-2.9339-0.50141-0.0202-0.49063-0.0447 0.09824-0.22336 0.3638-0.11034 1.1146-0.28534 1.6684-0.38889l1.0069-0.18827-0.57165 0.57165c-0.61448 0.61448-0.61452 0.55385 0.0034 5.1464 0.45043 3.3476-0.04905 4.4722-2.3463 5.2827-1.2256 0.43241-3.5164 0.51364-4.391 0.15569zm10.875-1.7165c0.60497-0.42374 0.61439-0.91057 0.08739-4.5157-0.48747-3.3347-0.84539-4.4512-1.5376-4.7963-0.55073-0.27457-0.41301-0.33836 1.3307-0.61637 1.0697-0.17056 2.1236-0.3693 2.3418-0.44164 0.2228-0.0738 0.13575 0.11227-0.19844 0.42429-0.32742 0.3057-0.59531 0.71435-0.59531 0.90811 0 0.29346 0.28484 2.0326 1.184 7.2295 0.05624 0.32502 0.18572 0.726 0.28774 0.89108 0.22549 0.36485 2.2147 0.1378 3.0813-0.35169 0.78068-0.44099 2.0519-1.8343 2.0573-2.2548 0.0024-0.1819 0.11948-0.33073 0.26035-0.33073 0.14087 0 0.2389 0.65485 0.21784 1.4552-0.02106 0.80037-0.07158 1.4552-0.11227 1.4552-0.04069 0-1.9183 0.29766-4.1724 0.66146-4.7818 0.77176-4.9469 0.78277-4.2324 0.28236zm12.248-2.1188c-0.90993-0.51409-1.4377-1.3659-1.6492-2.6614-0.38386-2.3522-0.44639-2.7052-0.74022-4.1793-0.19067-0.95653-0.4975-1.6678-0.81554-1.8906-0.70732-0.49543-0.52812-0.57155 2.5215-1.071l1.0081-0.1651-0.42315 0.64581c-0.38714 0.59085-0.38757 0.87924-0.0051 3.3884 0.49092 3.2209 0.99936 4.5551 1.8906 4.9612 1.434 0.65336 3.7131 0.11865 4.3189-1.0133 0.38795-0.72491 0.33736-2.5209-0.14306-5.0787-0.45025-2.3971-0.92585-3.3898-1.6411-3.4254-0.28605-0.0142-0.20955-0.0978 0.20454-0.22336 0.85929-0.26061 2.8836-0.57628 2.4303-0.37897-0.74321 0.3235-0.85794 1.4154-0.4228 4.0238 0.76229 4.5694 0.52797 5.5689-1.5493 6.6082-1.4855 0.74324-4.0619 0.98087-4.9844 0.4597zm-124.06-5.9184c0-0.14897 0.14378-0.31878 0.31953-0.37736 0.39825-0.13274 0.61199-4.6871 0.35079-7.4745-0.17438-1.8608-0.21812-1.9623-0.88988-2.0652-0.38857-0.0595 0.91302-0.12602 2.8924-0.14782 3.3439-0.0368 3.6626 3e-3 4.4979 0.5643 0.74408 0.49986 0.91284 0.7921 0.9792 1.6956 0.07148 0.97318-0.01738 1.1661-0.81872 1.7773-0.4944 0.37709-1.096 0.68562-1.3369 0.68562-0.65583 0-0.52663 0.3446 0.30694 0.81865 0.58514 0.33277 0.84146 0.79052 1.2147 2.1693 0.39061 1.443 0.59536 1.7924 1.1749 2.0047 0.58921 0.21589 0.43539 0.26052-0.95833 0.27805-1.8648 0.0235-1.9599-0.0752-2.3074-2.3928-0.22508-1.5009-0.83517-2.276-1.9194-2.4384l-0.8599-0.1288v2.0747c0 1.5333 0.1085 2.1832 0.41577 2.4905 0.37798 0.37797 0.29576 0.41577-0.9044 0.41577-0.7261 0-1.5085 0.0723-1.7387 0.1606-0.23018 0.0883-0.41851 0.0387-0.41851-0.11024zm5.3663-6.1179c0.25932-0.24551 0.5298-0.85598 0.60108-1.3566 0.18716-1.3146-0.36852-1.8844-1.9894-2.0402l-1.3321-0.12801v1.974c0 1.0857 0.07016 2.0441 0.15592 2.1299 0.28271 0.28271 2.0839-0.12396 2.5645-0.57903zm5.8854 5.7016c-0.34681-0.34681-0.58863-0.85282-0.53738-1.1245 0.05124-0.27166 0.10228-0.56934 0.11342-0.6615 0.0374-0.30961 0.99909-0.42711 1.4465-0.17673 0.3396 0.19005 0.40329 0.46001 0.27272 1.156-0.15819 0.84321-0.12174 0.90807 0.51035 0.90807 0.57644 0 0.72687-0.17143 0.98206-1.1192 0.34957-1.2982 0.10399-8.2198-0.29668-8.3618-0.13687-0.0485-0.24886-0.19733-0.24886-0.33073 0-0.13339 0.92273-0.22872 2.0505-0.21184 1.1278 0.0169 1.8124 0.0902 1.5214 0.1629-0.29104 0.0727-0.61664 0.26726-0.72355 0.43233-0.10691 0.16507-0.19621 2.0298-0.19844 4.1438-0.0044 4.2046-0.14028 4.6662-1.5945 5.4182-1.1696 0.60481-2.5564 0.5059-3.2975-0.23519zm-27.623-0.10192c-0.13772-0.25734-0.33177-0.94195-0.43122-1.5214-0.41053-2.3919-0.67949-3.0584-1.3347-3.3075-0.40313-0.15327-0.89816-0.15136-1.3096 5e-3 -0.62924 0.23924-0.66146 0.35427-0.66146 2.3616 0 1.7305 0.0833 2.1586 0.46302 2.3798 0.33701 0.19629-0.18503 0.26207-1.9182 0.2417-1.3097-0.0154-2.107-0.0804-1.7717-0.14452 0.88015-0.16825 1.061-0.90885 1.2632-5.1734 0.17831-3.7598 0.17223-3.8213-0.43383-4.3859l-0.61468-0.57266 0.91077 0.10363c0.50092 0.057 1.5656 0.12881 2.366 0.15958 1.0661 0.041 1.2789 0.10502 0.79574 0.23947-0.56137 0.15622-0.6907 0.39827-0.8695 1.6273-0.11552 0.79406-0.17595 1.8009-0.13429 2.2375l0.0757 0.79375 1.9182-1.8293c1.055-1.0061 1.9182-1.9825 1.9182-2.1697 0-0.18717-0.20836-0.46168-0.46302-0.61-0.34491-0.2009 0.0395-0.27174 1.5072-0.27773l1.9702-8e-3 -1.3752 0.68529c-1.2134 0.60464-3.7558 3.0481-3.7558 3.6096 0 0.11164 0.40048 0.20299 0.88996 0.20299 1.2524 0 2.1776 0.99417 2.4073 2.5868 0.30589 2.1206 0.42659 2.3835 1.29 2.8093l0.83668 0.41266-1.6443 6e-3c-1.3058 5e-3 -1.6959-0.0903-1.8948-0.46187zm5.1552 0.20895c0.75005-0.3031 0.89746-1.2167 0.89746-5.5626 0-2.7212-0.0895-3.713-0.35508-3.9334-0.19529-0.16208-0.43341-0.21634-0.52916-0.12059-0.0957 0.0957-0.1741 0.0596-0.1741-0.0805 0-0.28356 7.9611-0.16208 8.2338 0.12564 0.0902 0.0951 0.23352 0.64925 0.31852 1.2313l0.15454 1.0583-0.61089-0.69777c-0.33599-0.38378-0.87596-0.83963-1.1999-1.013-0.59067-0.31612-3.3158-0.50245-3.5738-0.24437-0.0756 0.0756-0.20783 0.99298-0.29375 2.0385l-0.15622 1.901h1.0554c0.84333 0 1.1644-0.14619 1.5982-0.7276l0.54286-0.72761 8e-3 1.6998 8e-3 1.6998-0.62574-0.58784c-0.35006-0.32887-1.0203-0.61145-1.5214-0.64143l-0.89563-0.0536-0.068 1.8521c-0.0374 1.0186 0.0326 2.0064 0.15549 2.1951 0.43824 0.67245 3.5156 0.50329 5.037-0.27688 0.34461-0.17671 0.72962-0.56153 0.85559-0.85516 0.15189-0.35409 0.17422-0.17748 0.0663 0.52445-0.0895 0.58209-0.21365 1.1476-0.27589 1.2568-0.0622 0.10914-2.16 0.19089-4.6616 0.18167-2.782-0.0103-4.3318-0.10431-3.9907-0.24217zm30.182-0.21137c0.36612-0.32407 1.2008-2.2881 2.2854-5.3779 1.0352-2.9489 1.8571-4.8973 2.0854-4.9434 0.23001-0.0464 0.5965 0.41746 0.94079 1.1906 1.9423 4.362 2.7108 6.2018 2.7116 6.4925 0.0013 0.41138 1.0195 2.1142 1.4214 2.3768 0.16359 0.10692-0.23835 0.206-0.89319 0.2202s-1.5478 0.0703-1.9844 0.1246c-0.43656 0.0543-0.64492 0.0346-0.46302-0.0438 0.69452-0.29946 0.04283-3.2874-0.7864-3.6056-0.1887-0.0724-0.95428-0.0729-1.7013-1e-3 -1.5472 0.14867-1.9441 0.64766-1.9441 2.4439 0 0.85517 0.09983 1.0467 0.59531 1.1421 0.34654 0.0667 0.15306 0.13123-0.46302 0.15431-0.58208 0.0218-1.356 0.10659-1.7198 0.18842l-0.66146 0.14878zm5.0188-4.3557c0.12703-0.20554-0.2027-1.0963-1.0325-2.7894-0.2762-0.56352-0.33697-0.49498-0.90815 1.0244-0.33667 0.89558-0.61214 1.7384-0.61214 1.8729 0 0.30423 2.3597 0.20445 2.5528-0.10794zm-57.718 4.0037c-0.78112-0.11875-0.86775-0.17073-0.33073-0.19844 0.81969-0.0423 0.85529-0.20989 0.448-2.109-0.26355-1.2289-0.3357-1.313-1.2568-1.4653-2.3762-0.39286-2.8679-0.0807-3.3419 2.122-0.14726 0.68421-0.0698 0.91552 0.43115 1.287l0.61068 0.45282-0.66146-0.15886c-0.3638-0.0874-1.1377-0.16854-1.7198-0.18038-0.96852-0.0197-1.0068-0.0463-0.45092-0.31403 0.55288-0.26624 1.2267-1.4798 2.8294-5.0956 0.258-0.58208 0.81066-1.7552 1.2281-2.6068s0.75904-1.7236 0.75904-1.9376c0-0.22785 0.1919-0.35252 0.46302-0.30081 0.34255 0.0653 0.85382 1.2539 1.965 4.5679 1.8326 5.4659 1.9167 5.6543 2.6631 5.9673 0.45283 0.18986 0.21316 0.23603-0.99003 0.19071-0.87313-0.0329-2.0638-0.1322-2.6458-0.22069zm-0.66146-4.4709c0-0.0882-0.25984-0.92755-0.57742-1.8653l-0.57743-1.705-0.73246 1.5875c-0.8785 1.904-0.88092 1.9207-0.2955 2.0396 0.75499 0.15338 2.1828 0.11622 2.1828-0.0568zm70.486 4.1738c0.47091-0.36322 0.49295-0.65622 0.33395-4.4388-0.12278-2.9209-0.28095-4.2188-0.56739-4.656-0.21843-0.33337-0.30918-0.65437-0.20166-0.71333 0.10752-0.059 0.9694-0.11577 1.9153-0.12626 0.94588-0.0105 1.5115 0.0403 1.257 0.11276-0.25456 0.0725-0.53773 0.43023-0.62927 0.79494-0.16408 0.65375 0.0683 3.5219 0.30448 3.7581 0.19221 0.19221 2.7617-2.6582 3.2957-3.656 0.26019-0.48617 0.23167-0.64354-0.17206-0.94953-0.42993-0.32584-0.30678-0.3676 1.1036-0.3742l1.5875-7e-3 -0.88818 0.54149c-0.92006 0.56092-1.7843 1.4829-2.8185 3.0069l-0.60102 0.88566 1.0682 0.14327c1.4198 0.19043 1.9246 0.75729 2.6402 2.9647 0.54173 1.671 0.68834 1.8798 1.5254 2.1717 0.87817 0.30623 0.83084 0.31991-0.91572 0.26458l-1.8418-0.0583-0.56405-1.8579c-0.82697-2.724-1.0412-3.0369-2.0793-3.0369-1.3286 0-1.5564 0.45826-1.3432 2.702 0.10079 1.0605 0.3048 2.0771 0.45336 2.259 0.19944 0.2442 0.13284 0.33073-0.25453 0.33073-0.28855 0-1.1068 0.0737-1.8183 0.1639-1.1744 0.14878-1.2472 0.12802-0.78951-0.22499zm-82.525-0.18464c-0.43656-0.10535-1.0434-0.32572-1.3485-0.48969-0.41375-0.22235-0.63235-0.22058-0.8599 7e-3 -0.23043 0.23043-0.30054-0.14498-0.28642-1.5337l0.0187-1.8389 0.47781 1.0583c0.68769 1.5232 1.6266 2.287 3.0019 2.442 0.97825 0.11026 1.2613 0.0324 1.7363-0.47741 1.1807-1.2673 0.4483-2.754-1.7365-3.5248-1.5326-0.54074-2.4211-1.1718-2.8689-2.0378-1.3437-2.5984 1.416-4.8834 4.7652-3.9456 0.63779 0.17857 1.2756 0.25296 1.4174 0.16532 0.21985-0.13587 0.6221 1.9176 0.42586 2.174-0.0368 0.048-0.4682-0.35067-0.95876-0.88597-0.70966-0.77437-1.1382-1.001-2.0971-1.1091-1.0714-0.12076-1.2667-0.0577-1.7591 0.56838-1.0409 1.3232-0.52077 2.1437 2.1996 3.4699 2.6309 1.2826 3.4944 2.6898 2.651 4.3207-0.75656 1.463-2.7173 2.1349-4.7786 1.6374zm94.296-0.52526c0.64939-0.4112 0.27564-8.7329-0.42362-9.4322-0.33048-0.33047-0.28261-0.38053 0.36635-0.38306 0.41058-2e-3 1.2228-0.0754 1.8048-0.16403 0.96982-0.14765 1.0161-0.12856 0.55367 0.22825-0.44782 0.34551-0.48433 0.60809-0.32417 2.3314 0.09927 1.0681 0.22986 1.9914 0.2902 2.0517 0.06034 0.0603 1.0929 8e-3 2.2946-0.1168l2.1849-0.22651-0.06536-1.5875c-0.08492-2.0624-0.22995-2.4993-0.92222-2.7785-0.46668-0.18819-0.37103-0.23377 0.51936-0.24745 0.60027-9e-3 1.4771-0.0939 1.9485-0.18819 0.82291-0.16458 0.8444-0.14774 0.5392 0.42254-0.41494 0.77532 0.11333 8.7516 0.60054 9.0675 0.55156 0.3576-0.36274 0.72743-1.7984 0.72743-0.7276 0-1.1924-0.0875-1.0329-0.19439 0.44472-0.2981 0.58203-1.3576 0.4024-3.1048l-0.16322-1.5875-1.8521 0.082c-2.8521 0.12635-2.7901 0.0795-2.6231 1.9845 0.21068 2.4037 0.33473 2.8249 0.84223 2.8596 0.81128 0.0554-1.0894 0.43433-2.3201 0.4625-0.78257 0.0179-1.0641-0.0528-0.82152-0.20646zm-101.89-0.20251c-0.30719-0.0809-0.50314-0.51058-0.61948-1.3584-0.3969-2.8923-0.71561-3.531-1.9075-3.8228-0.77349-0.18935-0.83012-0.0686-1.0308 2.1983-0.15605 1.7631-0.12391 1.9472 0.4103 2.3501 0.54907 0.41417 0.46637 0.42747-1.5694 0.25252-1.9658-0.16893-3.2282-0.49834-1.9099-0.49834 0.71439 0 1.0319-1.0124 1.2448-3.9688 0.0891-1.2369 0.22563-2.8845 0.30349-3.6612 0.11616-1.1589 0.0551-1.4811-0.34032-1.7958-0.42706-0.33991-0.22604-0.36518 1.7671-0.22217 3.7596 0.26976 4.6176 0.4993 5.5308 1.4795 1.1305 1.2135 0.31425 3.2285-1.4413 3.5578-1.003 0.18818-1.1882 0.51936-0.42556 0.7614 0.60356 0.19157 0.99998 1.0274 1.237 2.6081 0.18728 1.2489 0.66486 1.8859 1.5812 2.1091 0.29104 0.0709-0.12568 0.12891-0.92604 0.12891-0.80037 0-1.6574-0.0533-1.9045-0.11836zm-0.4449-6.3313c0.63886-0.57817 0.86825-1.7925 0.4616-2.4437-0.39917-0.63918-1.3344-1.0994-2.234-1.0994-0.77345 0-0.8154 0.10326-1.0086 2.4824l-0.14789 1.821 1.2308-0.1687c0.67691-0.0928 1.4411-0.35902 1.6981-0.59164zm117.7 5.5171c-1.6944-0.82118-1.979-1.4746-2.2436-5.1509-0.24596-3.4172-0.53179-4.4295-1.2634-4.4744-0.32181-0.0198 0.30759-0.12917 1.3987-0.24313 2.0151-0.21047 2.5261-0.13712 1.8699 0.26843-0.2927 0.1809-0.32861 0.81559-0.18259 3.2268 0.23636 3.9031 0.50427 4.874 1.4849 5.381 1.4345 0.74184 3.6016 0.34222 4.3516-0.80247 0.75586-1.1536 0.36209-7.3584-0.5295-8.3436-0.44659-0.49347-0.43275-0.50948 0.43981-0.50895l0.9009 5.5e-4v4.337c0 4.7588-0.07238 4.9965-1.7928 5.8861-0.83873 0.43372-3.8243 0.71889-4.4338 0.4235zm-132.55-0.46345c-2.7223-0.70073-3.0245-1.1822-2.8018-4.465 0.09-1.3266 0.235-2.799 0.32228-3.2719 0.226-1.2246-0.0968-2.6509-0.63647-2.8127-0.24989-0.0749 0.0219-0.0835 0.60398-0.0192 0.58208 0.0644 1.5644 0.14093 2.1828 0.17017 0.61846 0.0292 1.1245 0.14895 1.1245 0.26602s-0.15975 0.21285-0.35499 0.21285c-0.44028 0-0.8694 1.446-1.0992 3.7042-0.0963 0.94589-0.22211 2.0202-0.27964 2.3873-0.299 1.9081 1.1405 3.4335 3.2402 3.4335 2.17 0 3.0178-1.8113 3.0901-6.6016 0.0321-2.1286 2e-3 -2.2545-0.62771-2.6011-0.63281-0.34844-0.61562-0.35771 0.39687-0.2139 0.58209 0.0827 1.4155 0.15917 1.8521 0.17 0.7242 0.018 0.7431 0.0401 0.21573 0.25257-0.81378 0.32787-1.0573 0.92122-1.248 3.0409-0.34816 3.8698-0.70546 5.1102-1.6879 5.8596-1.0384 0.792-2.477 0.95561-4.2928 0.48822zm142.31-1.7176c-0.21871-0.94589-0.3595-1.7701-0.31288-1.8317 0.04663-0.0615 0.50268 0.37635 1.0135 0.97307 1.1476 1.3407 2.4007 1.816 3.6771 1.3947 1.3855-0.45725 1.7562-2.2253 0.64607-3.0813-0.19818-0.15281-1.1938-0.49714-2.2124-0.76518-2.9424-0.77423-4.074-2.2983-3.151-4.2436 0.63572-1.3397 2.1197-1.9886 4.4035-1.9257 1.0059 0.0277 1.7037 0.16329 1.7062 0.33148 0.0024 0.15652 0.09201 0.7013 0.19936 1.2106 0.18644 0.8845 0.17677 0.90088-0.2155 0.36522-0.52856-0.72177-2.0115-1.4236-3.0082-1.4236-1.0694 0-1.9187 0.79592-1.9187 1.7981 0 1.0527 0.46382 1.4858 2.029 1.8946 3.5134 0.91769 4.6544 1.8088 4.4441 3.4706-0.29284 2.3139-2.6021 3.436-5.7213 2.7801-0.82095-0.17262-0.98418-0.12942-1.0746 0.28439-0.05862 0.26836-0.28552-0.28598-0.50423-1.2319zm-153.16 0.38179c-0.21828-0.0473-1.3494-0.17532-2.5135-0.28452s-1.8574-0.24244-1.5406-0.29609c0.82384-0.13948 1.1137-0.59562 1.4057-2.2123 0.70173-3.8846 0.91275-6.7871 0.5272-7.2516-0.30602-0.36873-0.0706-0.39581 2.279-0.26223 3.0314 0.17234 3.3748 0.25478 4.2595 1.0224 0.55756 0.48375 0.63073 0.72025 0.49209 1.5906-0.17993 1.1295-0.92345 1.8997-2.0913 2.1664-0.5676 0.12959-0.67868 0.24716-0.44979 0.47606 0.16718 0.16718 0.38731 0.30483 0.48917 0.30589 0.3584 4e-3 1.2907 0.79935 1.7298 1.4761 1.335 2.0578-1.3492 3.9709-4.5873 3.2694zm2.0866-1.0651c0.7927-1.0078 0.87682-1.5066 0.43315-2.5684-0.30698-0.73472-0.61844-1.0162-1.347-1.2174-1.2265-0.33867-1.6987-0.13853-1.7154 0.72708-7e-3 0.38461-0.0784 1.2086-0.1578 1.8311-0.20638 1.6181-0.0222 1.9109 1.2021 1.9109 0.81105 0 1.1687-0.15421 1.5849-0.68328zm-0.63578-4.6067c1.2476-0.47435 1.7544-2.7708 0.86159-3.9043-0.2876-0.36515-1.9395-0.45542-2.1484-0.1174-0.0725 0.11733-0.19824 0.89015-0.2794 1.7174-0.0812 0.82723-0.16201 1.5944-0.17968 1.7049-0.14352 0.89702 0.43798 1.0967 1.7459 0.59939zm163.21 4.8563c-1.0328-0.53465-1.3486-1.1452-1.5546-3.0059-0.53107-4.7962-0.85109-6.0766-1.5229-6.0935-0.19815-5e-3 -0.16921-0.0964 0.07545-0.2383 0.21828-0.12664 1.2303-0.29636 2.249-0.37715 1.0186-0.0808 1.6493-0.085 1.4015-9e-3 -0.66589 0.20337-0.8122 0.97836-0.61118 3.2373 0.39716 4.4628 0.92977 5.6856 2.5819 5.9281 1.0741 0.15764 2.709-0.27037 3.2294-0.84544 0.27878-0.30804 0.42304-1.0146 0.43993-2.1545 0.05373-3.6275-0.64727-6.5604-1.5816-6.6174-0.71633-0.0436 0.8109-0.44775 1.8005-0.47642 0.82758-0.024 0.86593 6e-3 0.42122 0.33137-0.445 0.3254-0.47039 0.59459-0.28079 2.9766 0.34093 4.283 0.34788 4.7057 0.08868 5.3933-0.52143 1.3833-1.8909 2.134-4.1486 2.2743-1.2766 0.0793-1.9804-9e-3 -2.5879-0.32305zm10.635-1.5507c-0.10274-0.43656-0.29601-1.1389-0.4295-1.5608-0.39742-1.256-0.2813-1.3724 0.42038-0.42133 1.053 1.4273 2.0616 1.9396 3.4993 1.7776 1.4063-0.15851 1.923-0.67715 1.923-1.9302 0-1.1149-0.37556-1.3783-2.6382-1.8501-2.8134-0.58661-3.9529-1.4318-3.968-2.9432-0.02156-2.159 1.4522-3.3367 4.162-3.3259 0.91127 4e-3 1.7344-0.11887 1.8292-0.27225 0.09479-0.15338 0.32967 0.24728 0.52194 0.89035 0.46134 1.543 0.43486 1.8113-0.11419 1.1574-0.60949-0.72595-2.4844-1.4485-3.2643-1.2579-0.97026 0.23702-1.5556 0.87954-1.5556 1.7077 0 0.68612 0.77412 1.8045 1.2568 1.8157 0.10914 3e-3 1.0158 0.17776 2.0147 0.38941 2.3012 0.48755 3.3431 1.4332 3.3431 3.0344 0 0.84857-0.17826 1.2302-0.92214 1.9741-1.061 1.061-2.1818 1.3556-4.2382 1.1139-1.0124-0.11898-1.4447-0.0725-1.532 0.1647-0.0669 0.18175-0.20568-0.0267-0.30842-0.46329z"/>
  </g>
 </g>
</svg>
